$MeshFormat
4.1 0 8
$EndMeshFormat
$PhysicalNames
1
2 1 "domain"
$EndPhysicalNames
$Entities
6 6 1 0
5 0.625 0.25 0 0 
6 0.7500000000000001 0.8749999999999999 0 0 
7 0 0 0 0 
8 1 0 0 0 
9 0 1 0 0 
10 1 1 0 0 
5 0.1249999 0.1249999 -1e-07 0.6250000999999999 0.3750001 1e-07 0 2 5 -5 
6 0.6249999000000002 0.3749999 -1e-07 0.8750001000000001 0.8750000999999999 1e-07 0 2 6 -6 
7 -9.999999994736442e-08 -1e-07 -1e-07 1.0000001 1e-07 1e-07 0 2 7 -8 
8 -1e-07 -9.999999994736442e-08 -1e-07 1e-07 1.0000001 1e-07 0 2 9 -7 
9 0.9999999000000001 -9.999999994736442e-08 -1e-07 1.0000001 1.0000001 1e-07 0 2 8 -10 
10 -9.999999994736442e-08 0.9999999000000001 -1e-07 1.0000001 1.0000001 1e-07 0 2 10 -9 
1 -9.999999994736442e-08 -9.999999994736442e-08 -1e-07 1.0000001 1.0000001 1e-07 1 1 6 7 9 10 8 -5 -6 
$EndEntities
$Nodes
13 1220 1 1220
0 5 0 1
1
0.625 0.25 0
0 6 0 1
2
0.7500000000000001 0.875 0
0 7 0 1
3
0 0 0
0 8 0 1
4
1 0 0
0 9 0 1
5
0 1 0
0 10 0 1
6
1 1 0
1 5 0 40
7
8
9
10
11
12
13
14
15
16
17
18
19
20
21
22
23
24
25
26
27
28
29
30
31
32
33
34
35
36
37
38
39
40
41
42
43
44
45
46
0.618394422807355 0.2785445044898073 0
0.6016585578811955 0.3027396865254638 0
0.5793430219792324 0.3220137649487842 0
0.5540569968047345 0.3372332962452831 0
0.5270735518804573 0.3492139541829448 0
0.4990516219303548 0.3585255673752138 0
0.4703675776319465 0.365547636428244 0
0.4412584248401983 0.3705298937377112 0
0.4118885600176924 0.3736317456600661 0
0.3823842194814061 0.374945461404817 0
0.3528538089238243 0.3745085802473243 0
0.3234024220043202 0.3723087179486603 0
0.2941453359054212 0.3682819970390178 0
0.2652247075995019 0.3623047029050711 0
0.2368355260354199 0.3541760266737157 0
0.209272900833262 0.3435875640800878 0
0.1830286614194045 0.3300734118849296 0
0.159008109899066 0.3129434337533035 0
0.1390322526186601 0.2912892909716798 0
0.1267194295009576 0.2646352170522856 0
0.1267194295009568 0.2353647829477178 0
0.1390322526186581 0.2087107090283231 0
0.1590081098990633 0.1870565662466988 0
0.1830286614194015 0.1699265881150721 0
0.209272900833259 0.1564124359199135 0
0.2368355260354165 0.1458239733262855 0
0.2652247075994982 0.1376952970949298 0
0.2941453359054178 0.1317180029609828 0
0.323402422004317 0.1276912820513401 0
0.3528538089238206 0.1254914197526759 0
0.3823842194814019 0.125054538595183 0
0.4118885600176879 0.1263682543399335 0
0.4412584248401933 0.1294701062622881 0
0.4703675776319409 0.1344523635717548 0
0.4990516219303507 0.141474432624785 0
0.5270735518804529 0.1507860458170535 0
0.5540569968047315 0.1627667037547154 0
0.579343021979231 0.1779862350512148 0
0.6016585578811946 0.1972603134745353 0
0.6183944228073551 0.2214554955101931 0
1 6 0 40
47
48
49
50
51
52
53
54
55
56
57
58
59
60
61
62
63
64
65
66
67
68
69
70
71
72
73
74
75
76
77
78
79
80
81
82
83
84
85
86
0.7214554955101928 0.868394422807355 0
0.6972603134745363 0.8516585578811955 0
0.6779862350512159 0.8293430219792324 0
0.662766703754717 0.8040569968047345 0
0.6507860458170553 0.7770735518804573 0
0.6414744326247863 0.7490516219303549 0
0.6344523635717561 0.7203675776319465 0
0.6294701062622889 0.6912584248401984 0
0.626368254339934 0.6618885600176924 0
0.6250545385951831 0.6323842194814061 0
0.6254914197526759 0.6028538089238243 0
0.6276912820513398 0.5734024220043202 0
0.6317180029609823 0.5441453359054212 0
0.637695297094929 0.5152247075995019 0
0.6458239733262845 0.4868355260354199 0
0.6564124359199123 0.459272900833262 0
0.6699265881150704 0.4330286614194045 0
0.6870565662466965 0.409008109899066 0
0.7087107090283202 0.3890322526186601 0
0.7353647829477145 0.3767194295009576 0
0.7646352170522823 0.3767194295009568 0
0.791289290971677 0.3890322526186581 0
0.8129434337533014 0.4090081098990633 0
0.830073411884928 0.4330286614194016 0
0.8435875640800866 0.459272900833259 0
0.8541760266737146 0.4868355260354165 0
0.8623047029050703 0.5152247075994982 0
0.8682819970390173 0.5441453359054178 0
0.8723087179486601 0.5734024220043169 0
0.8745085802473241 0.6028538089238206 0
0.8749454614048171 0.6323842194814019 0
0.8736317456600665 0.6618885600176879 0
0.8705298937377119 0.6912584248401933 0
0.8655476364282453 0.7203675776319409 0
0.8585255673752151 0.7490516219303507 0
0.8492139541829465 0.7770735518804529 0
0.8372332962452848 0.8040569968047315 0
0.8220137649487853 0.829343021979231 0
0.8027396865254649 0.8516585578811946 0
0.7785445044898071 0.8683944228073551 0
1 7 0 33
87
88
89
90
91
92
93
94
95
96
97
98
99
100
101
102
103
104
105
106
107
108
109
110
111
112
113
114
115
116
117
118
119
0.02941176470588239 0 0
0.05882352941176477 0 0
0.08823529411764718 0 0
0.1176470588235296 0 0
0.147058823529412 0 0
0.1764705882352943 0 0
0.2058823529411767 0 0
0.235294117647059 0 0
0.2647058823529415 0 0
0.2941176470588239 0 0
0.3235294117647065 0 0
0.3529411764705889 0 0
0.3823529411764713 0 0
0.4117647058823538 0 0
0.4411764705882362 0 0
0.4705882352941187 0 0
0.5000000000000011 0 0
0.5294117647058832 0 0
0.5588235294117656 0 0
0.5882352941176479 0 0
0.6176470588235301 0 0
0.6470588235294124 0 0
0.6764705882352946 0 0
0.7058823529411768 0 0
0.7352941176470592 0 0
0.7647058823529413 0 0
0.7941176470588236 0 0
0.823529411764706 0 0
0.8529411764705882 0 0
0.8823529411764703 0 0
0.9117647058823527 0 0
0.9411764705882349 0 0
0.9705882352941173 0 0
1 8 0 33
120
121
122
123
124
125
126
127
128
129
130
131
132
133
134
135
136
137
138
139
140
141
142
143
144
145
146
147
148
149
150
151
152
0 0.9705882352941176 0
0 0.9411764705882353 0
0 0.9117647058823528 0
0 0.8823529411764705 0
0 0.8529411764705881 0
0 0.8235294117647057 0
0 0.7941176470588234 0
0 0.7647058823529409 0
0 0.7352941176470585 0
0 0.7058823529411761 0
0 0.6764705882352935 0
0 0.6470588235294111 0
0 0.6176470588235287 0
0 0.5882352941176462 0
0 0.5588235294117638 0
0 0.5294117647058814 0
0 0.4999999999999989 0
0 0.4705882352941168 0
0 0.4411764705882344 0
0 0.4117647058823521 0
0 0.3823529411764699 0
0 0.3529411764705876 0
0 0.3235294117647054 0
0 0.2941176470588232 0
0 0.2647058823529408 0
0 0.2352941176470587 0
0 0.2058823529411764 0
0 0.176470588235294 0
0 0.1470588235294118 0
0 0.1176470588235297 0
0 0.0882352941176473 0
0 0.05882352941176505 0
0 0.02941176470588269 0
1 9 0 33
153
154
155
156
157
158
159
160
161
162
163
164
165
166
167
168
169
170
171
172
173
174
175
176
177
178
179
180
181
182
183
184
185
1 0.02941176470588239 0
1 0.05882352941176477 0
1 0.08823529411764718 0
1 0.1176470588235296 0
1 0.147058823529412 0
1 0.1764705882352943 0
1 0.2058823529411767 0
1 0.235294117647059 0
1 0.2647058823529415 0
1 0.2941176470588239 0
1 0.3235294117647065 0
1 0.3529411764705889 0
1 0.3823529411764713 0
1 0.4117647058823538 0
1 0.4411764705882362 0
1 0.4705882352941187 0
1 0.5000000000000011 0
1 0.5294117647058832 0
1 0.5588235294117656 0
1 0.5882352941176479 0
1 0.6176470588235301 0
1 0.6470588235294124 0
1 0.6764705882352946 0
1 0.7058823529411768 0
1 0.7352941176470592 0
1 0.7647058823529413 0
1 0.7941176470588236 0
1 0.823529411764706 0
1 0.8529411764705882 0
1 0.8823529411764703 0
1 0.9117647058823527 0
1 0.9411764705882349 0
1 0.9705882352941173 0
1 10 0 33
186
187
188
189
190
191
192
193
194
195
196
197
198
199
200
201
202
203
204
205
206
207
208
209
210
211
212
213
214
215
216
217
218
0.9705882352941176 1 0
0.9411764705882353 1 0
0.9117647058823528 1 0
0.8823529411764705 1 0
0.8529411764705881 1 0
0.8235294117647057 1 0
0.7941176470588234 1 0
0.7647058823529409 1 0
0.7352941176470585 1 0
0.7058823529411761 1 0
0.6764705882352935 1 0
0.6470588235294111 1 0
0.6176470588235287 1 0
0.5882352941176462 1 0
0.5588235294117638 1 0
0.5294117647058814 1 0
0.4999999999999989 1 0
0.4705882352941168 1 0
0.4411764705882344 1 0
0.4117647058823521 1 0
0.3823529411764699 1 0
0.3529411764705876 1 0
0.3235294117647054 1 0
0.2941176470588232 1 0
0.2647058823529408 1 0
0.2352941176470587 1 0
0.2058823529411764 1 0
0.176470588235294 1 0
0.1470588235294118 1 0
0.1176470588235297 1 0
0.0882352941176473 1 0
0.05882352941176505 1 0
0.02941176470588269 1 0
2 1 0 1002
219
220
221
222
223
224
225
226
227
228
229
230
231
232
233
234
235
236
237
238
239
240
241
242
243
244
245
246
247
248
249
250
251
252
253
254
255
256
257
258
259
260
261
262
263
264
265
266
267
268
269
270
271
272
273
274
275
276
277
278
279
280
281
282
283
284
285
286
287
288
289
290
291
292
293
294
295
296
297
298
299
300
301
302
303
304
305
306
307
308
309
310
311
312
313
314
315
316
317
318
319
320
321
322
323
324
325
326
327
328
329
330
331
332
333
334
335
336
337
338
339
340
341
342
343
344
345
346
347
348
349
350
351
352
353
354
355
356
357
358
359
360
361
362
363
364
365
366
367
368
369
370
371
372
373
374
375
376
377
378
379
380
381
382
383
384
385
386
387
388
389
390
391
392
393
394
395
396
397
398
399
400
401
402
403
404
405
406
407
408
409
410
411
412
413
414
415
416
417
418
419
420
421
422
423
424
425
426
427
428
429
430
431
432
433
434
435
436
437
438
439
440
441
442
443
444
445
446
447
448
449
450
451
452
453
454
455
456
457
458
459
460
461
462
463
464
465
466
467
468
469
470
471
472
473
474
475
476
477
478
479
480
481
482
483
484
485
486
487
488
489
490
491
492
493
494
495
496
497
498
499
500
501
502
503
504
505
506
507
508
509
510
511
512
513
514
515
516
517
518
519
520
521
522
523
524
525
526
527
528
529
530
531
532
533
534
535
536
537
538
539
540
541
542
543
544
545
546
547
548
549
550
551
552
553
554
555
556
557
558
559
560
561
562
563
564
565
566
567
568
569
570
571
572
573
574
575
576
577
578
579
580
581
582
583
584
585
586
587
588
589
590
591
592
593
594
595
596
597
598
599
600
601
602
603
604
605
606
607
608
609
610
611
612
613
614
615
616
617
618
619
620
621
622
623
624
625
626
627
628
629
630
631
632
633
634
635
636
637
638
639
640
641
642
643
644
645
646
647
648
649
650
651
652
653
654
655
656
657
658
659
660
661
662
663
664
665
666
667
668
669
670
671
672
673
674
675
676
677
678
679
680
681
682
683
684
685
686
687
688
689
690
691
692
693
694
695
696
697
698
699
700
701
702
703
704
705
706
707
708
709
710
711
712
713
714
715
716
717
718
719
720
721
722
723
724
725
726
727
728
729
730
731
732
733
734
735
736
737
738
739
740
741
742
743
744
745
746
747
748
749
750
751
752
753
754
755
756
757
758
759
760
761
762
763
764
765
766
767
768
769
770
771
772
773
774
775
776
777
778
779
780
781
782
783
784
785
786
787
788
789
790
791
792
793
794
795
796
797
798
799
800
801
802
803
804
805
806
807
808
809
810
811
812
813
814
815
816
817
818
819
820
821
822
823
824
825
826
827
828
829
830
831
832
833
834
835
836
837
838
839
840
841
842
843
844
845
846
847
848
849
850
851
852
853
854
855
856
857
858
859
860
861
862
863
864
865
866
867
868
869
870
871
872
873
874
875
876
877
878
879
880
881
882
883
884
885
886
887
888
889
890
891
892
893
894
895
896
897
898
899
900
901
902
903
904
905
906
907
908
909
910
911
912
913
914
915
916
917
918
919
920
921
922
923
924
925
926
927
928
929
930
931
932
933
934
935
936
937
938
939
940
941
942
943
944
945
946
947
948
949
950
951
952
953
954
955
956
957
958
959
960
961
962
963
964
965
966
967
968
969
970
971
972
973
974
975
976
977
978
979
980
981
982
983
984
985
986
987
988
989
990
991
992
993
994
995
996
997
998
999
1000
1001
1002
1003
1004
1005
1006
1007
1008
1009
1010
1011
1012
1013
1014
1015
1016
1017
1018
1019
1020
1021
1022
1023
1024
1025
1026
1027
1028
1029
1030
1031
1032
1033
1034
1035
1036
1037
1038
1039
1040
1041
1042
1043
1044
1045
1046
1047
1048
1049
1050
1051
1052
1053
1054
1055
1056
1057
1058
1059
1060
1061
1062
1063
1064
1065
1066
1067
1068
1069
1070
1071
1072
1073
1074
1075
1076
1077
1078
1079
1080
1081
1082
1083
1084
1085
1086
1087
1088
1089
1090
1091
1092
1093
1094
1095
1096
1097
1098
1099
1100
1101
1102
1103
1104
1105
1106
1107
1108
1109
1110
1111
1112
1113
1114
1115
1116
1117
1118
1119
1120
1121
1122
1123
1124
1125
1126
1127
1128
1129
1130
1131
1132
1133
1134
1135
1136
1137
1138
1139
1140
1141
1142
1143
1144
1145
1146
1147
1148
1149
1150
1151
1152
1153
1154
1155
1156
1157
1158
1159
1160
1161
1162
1163
1164
1165
1166
1167
1168
1169
1170
1171
1172
1173
1174
1175
1176
1177
1178
1179
1180
1181
1182
1183
1184
1185
1186
1187
1188
1189
1190
1191
1192
1193
1194
1195
1196
1197
1198
1199
1200
1201
1202
1203
1204
1205
1206
1207
1208
1209
1210
1211
1212
1213
1214
1215
1216
1217
1218
1219
1220
0.3344576044471362 0.3959366757540787 0
0.3103447762443117 0.9762914343499181 0
0.02454761753453971 0.6912940983925278 0
0.6024844577338536 0.6792597405123671 0
0.02627516879897784 0.5752267612486831 0
0.425498104528638 0.9737244243810239 0
0.6022522205093057 0.5843421559908515 0
0.02561651978514384 0.8109208371521596 0
0.8116039707420444 0.02838845970330478 0
0.2421118184908244 0.3830464065593109 0
0.6461833247295434 0.2300239061683281 0
0.9745286645945753 0.2205882352941178 0
0.6234913807568693 0.7721567509588381 0
0.191885991261412 0.9753593165258989 0
0.4318165691779277 0.396761228638278 0
0.02871054708349707 0.4872681740020701 0
0.7867649116632716 0.3570802588182054 0
0.513076739908048 0.9720174844369736 0
0.720290149421839 0.02509337883897617 0
0.9722009684733915 0.1349469900118418 0
0.6188533884629623 0.4929819615613956 0
0.6500713826768254 0.8275346847447977 0
0.9701734715302535 0.3054822666642883 0
0.1900578977686548 0.3593943677311449 0
0.6071735212196716 0.1683195791391934 0
0.1021272703764294 0.9724183847435539 0
0.1020084443128518 0.024512620782489 0
0.9757918678526822 0.8965263424853092 0
0.4911203434002437 0.3853519164812097 0
0.02443762364785063 0.3983445527926235 0
0.8383618622291398 0.4073490132190176 0
0.8342149248992357 0.857006873154077 0
0.6029411764705874 0.9745286645945752 0
0.02533889200695871 0.1338857188469899 0
0.8991845308299578 0.02660382308972647 0
0.6318967345960733 0.02300631353206406 0
0.1522203497209893 0.1578985629140325 0
0.5474655275577096 0.3658981068389255 0
0.8641107575242899 0.8014060684506267 0
0.5544924455947422 0.1313858935479127 0
0.02547133540542468 0.8970588235294117 0
0.8974607964261888 0.9735207962851572 0
0.9756179937782732 0.4264702688233544 0
0.195543004599141 0.02452526458169224 0
0.7053336544907801 0.3609752211152443 0
0.1307083310750059 0.316459884343766 0
0.6943161161865048 0.8809150047597689 0
0.975082154460601 0.3666904626616676 0
0.02457819213834561 0.6339290997601935 0
0.02487332940783676 0.7499999999999998 0
0.2480891287165132 0.9752112779930393 0
0.3678160962100281 0.974365807878685 0
0.9756577225887967 0.4832098073822336 0
0.9740631909517043 0.8387158446609665 0
0.8398611064487448 0.9754954832914883 0
0.5147853899904392 0.02417650810216687 0
0.6577040349502757 0.4061939906606833 0
0.02547721255987379 0.1920089824624415 0
0.8815973539994557 0.7403634197527179 0
0.2500934483457926 0.01947344851868749 0
0.5726687218645508 0.02549547155013981 0
0.8713013300029049 0.4641170360934831 0
0.02644550616639418 0.3391795401839964 0
0.7699043917861113 0.8960355317428114 0
0.9727858843664424 0.5449875903717779 0
0.458741168139391 0.02600777900712492 0
0.2138854441584517 0.1272511560424697 0
0.9710460405910177 0.6941402192159395 0
0.3109915820392695 0.025587705891713 0
0.09681448117794095 0.2538208329737782 0
0.6597357601406036 0.9757874885417248 0
0.3696424764290697 0.02434578227862411 0
0.9699307553268763 0.7778729790271833 0
0.9750880287010073 0.6019460246643098 0
0.9722325499874751 0.07307808056946763 0
0.02399490097823048 0.07261533966861905 0
0.721537992023241 0.9750380765794011 0
0.6300296163254611 0.3055458557962397 0
0.9016364668088349 0.6520302964519086 0
0.4924789471700097 0.1128563843436924 0
0.8906405493965137 0.5229734624058439 0
0.2749332386477832 0.1090445570173432 0
0.3948934202316037 0.1004899497898063 0
0.02299293900374771 0.2777325336408109 0
0.3360621035566257 0.1011059232612612 0
0.7785647568040147 0.9750224147587231 0
0.8994809496349105 0.5860824194027417 0
0.736331759881472 0.3463336399081726 0
0.7127623111466909 0.3306454490974674 0
0.740641805736557 0.3183766764578097 0
0.7164875522470456 0.3014763843917563 0
0.7432728665867208 0.2891888766364774 0
0.7193175700767447 0.272290100260408 0
0.7459711372877154 0.2599990019061998 0
0.7699214328850943 0.2769041966173471 0
0.7725920686126113 0.2476994049103575 0
0.796556710365628 0.2646154007328448 0
0.7992229380524773 0.2353974808277585 0
0.7752515401108695 0.2184832623048586 0
0.8018878761142679 0.2061759851843441 0
0.7779075971725531 0.1892566957094286 0
0.8045565360343748 0.1769453578594927 0
0.8231963107842949 0.2523126839234929 0
0.7805669003944125 0.1600211217842038 0
0.8072200427735591 0.1477049957869758 0
0.8312147963971315 0.1646358424290312 0
0.7539190150476595 0.1723361799643852 0
0.8338802811369651 0.1353879136891161 0
0.7565760082045168 0.1430958642086794 0
0.7299228608239542 0.155414590677913 0
0.8578802951971792 0.1523240268367508 0
0.8605474955427883 0.1230673760895785 0
0.73257776943179 0.126161601632831 0
0.7059109892642224 0.1384885650038645 0
0.8205228320470298 0.2815478611596388 0
0.8471768381775313 0.2692357225662237 0
0.8444985183889624 0.2984854186028362 0
0.8711648896820451 0.286170164715096 0
0.8738331519527616 0.256921830824637 0
0.8684918073964579 0.315419282655963 0
0.7584582295936841 0.1149530644955252 0
0.7219972383327378 0.2430927391039356 0
0.7085688409151178 0.1092235594377324 0
0.681887814687863 0.1215545792085443 0
0.8845526488752564 0.1400068915203454 0
0.881878244579529 0.1692570433598282 0
0.8872224452968045 0.1107431957000719 0
0.8632103382319333 0.09380157083178697 0
0.8978298277276775 0.2738549808055533 0
0.9004887730829851 0.2446116064396919 0
0.6845475051089283 0.09227770438181276 0
0.6578524090097775 0.1046106499956464 0
0.7045424401118197 0.1678611930486859 0
0.9239584960117502 0.2614891647443964 0
0.9085584717546797 0.1569502544134992 0
0.6890844919070835 0.3401582275062026 0
0.1013643689717513 0.2207189639867188 0
0.1124772467552472 0.1904951523906301 0
0.07498080177744071 0.2322831297873084 0
0.654532534646203 0.2575574715570815 0
0.7408349422854232 0.9027245417137167 0
0.04374127675672057 0.9765247019304293 0
0.971531787329948 0.9559448163323382 0
0.8418146406743987 0.3277383605708781 0
0.865816508756787 0.3446933026594372 0
0.8925084349672505 0.3323793739948089 0
0.8898266728569658 0.3616658207382669 0
0.1008285215966811 0.280778104613833 0
0.8098799284890374 0.1184563052490624 0
0.9212388785450389 0.2896783687242264 0
0.8764956760313978 0.2276907116698138 0
0.9058744493863718 0.1861953238694065 0
0.9325628068947653 0.173881019174419 0
0.9150884666645642 0.3495355463233114 0
0.912274172132898 0.3788417032943925 0
0.6552703062022964 0.1332475702032 0
0.6311434636719142 0.1170068682320234 0
0.6338096458018955 0.08765378373878546 0
0.6022611802675029 0.1036511469854395 0
0.07814218862254868 0.198407256237397 0
0.09163556299451531 0.1689854190531157 0
0.889766544715467 0.08164967710573556 0
0.9121042453045729 0.0982862905287788 0
0.8657266798587199 0.06473356775356559 0
0.8395701379420653 0.07693315335843209 0
0.6093680333473561 0.07218968489045396 0
0.585135596094744 0.08349841360174365 0
0.7147756492300396 0.07725326585357978 0
0.6877500026438814 0.06178207421945564 0
0.9152873375941131 0.07029114306315376 0
0.7991604180972276 0.8916950750291566 0
0.7874768349467294 0.9230737251750853 0
0.8183531345117407 0.9127130891748108 0
0.6416384250877061 0.2013464584985833 0
0.6721426220168294 0.2079210487917545 0
0.8367848562026481 0.3587039112788841 0
0.9558893933834796 0.02489585093876279 0
0.04445962768549194 0.0222439447418501 0
0.9266475594810859 0.2322452158507606 0
0.8878840020175796 0.3910913144059774 0
0.9107094480352614 0.4073326009758899 0
0.9328085495139812 0.3937918674355644 0
0.6936984602000212 0.2810004729505025 0
0.6609341567824769 0.1796290212560827 0
0.6142479861313639 0.3292855302395472 0
0.5915926779039258 0.3506235642487792 0
0.6222589731272852 0.3556365939370496 0
0.6053557299891215 0.3796752454660194 0
0.8100320330663717 0.9393598423923247 0
0.838194055493185 0.9311169459217972 0
0.8471825532715269 0.904863475317415 0
0.8670589640945116 0.92516257545535 0
0.875834415434368 0.8978545548396655 0
0.8958972904834518 0.9192178566917802 0
0.90452324434494 0.8912651620459047 0
0.8853995265121534 0.8700891677813667 0
0.9132780218440132 0.8632130805618058 0
0.9241820908559375 0.9131692217793032 0
0.8943675409558703 0.8428168481987925 0
0.9216662193330412 0.8351281393789951 0
0.640889094781649 0.3316443441909115 0
0.6492219877281226 0.356988266061026 0
0.886396666454294 0.4196987997813739 0
0.9081468406520913 0.4370121440504723 0
0.6683561323482081 0.8667606862549159 0
0.6678329936416358 0.8939927667331858 0
0.6435232691994361 0.8775794157412417 0
0.6417260411300564 0.9062147815182817 0
0.6173864552466517 0.8896103710562709 0
0.6917870152775727 0.9102933503750715 0
0.6151745289508156 0.9187673521722908 0
0.5908737028044126 0.9021273302510282 0
0.5932165586086567 0.872781484183464 0
0.5667609246135674 0.8851950358014272 0
0.5689993390433764 0.8559998962411539 0
0.5425326394372327 0.8684237315708797 0
0.5447524843444848 0.8392523335529165 0
0.518127609938565 0.85188030844264 0
0.52046085683885 0.8225648830191306 0
0.4938368563680055 0.8351871147442627 0
0.4961920725622875 0.8058388532037818 0
0.4695559839422239 0.8184618453343084 0
0.471936466166946 0.7891016789342742 0
0.4452859243756837 0.8017178501547136 0
0.4476745003584736 0.7723689271781653 0
0.4210452950050095 0.785001657074798 0
0.4234079483523808 0.7556393395102363 0
0.3967747307319855 0.7682687751538404 0
0.3991471821871784 0.7389030458579322 0
0.3725077030192212 0.7515268924398358 0
0.3748897337327249 0.7221721727623205 0
0.3482637424326744 0.7348072870832519 0
0.3506284307588832 0.7054389624699342 0
0.3240093972948145 0.7180829901636443 0
0.3263678173622502 0.6887072799524538 0
0.3529904987624309 0.6760618461737951 0
0.3287265195609942 0.6593290779164449 0
0.3021048022729859 0.6719776140747363 0
0.3044614988921657 0.6425982163775016 0
0.3553521810877603 0.6466792834638019 0
0.2778412771291352 0.6552469112951514 0
0.2801974455898191 0.6258680191525234 0
0.32163007317286 0.7474443499158856 0
0.2535788064208013 0.6385165125770198 0
0.2559337410369817 0.6091384703977294 0
0.2512231088710246 0.6678906261558106 0
0.4257795731423438 0.7262791366355987 0
0.2825562952881992 0.5964876800167248 0
0.2582872489389652 0.5797579999525037 0
0.2316694290573464 0.5924107370368932 0
0.234019020239025 0.563029740380478 0
0.3943849264508038 0.7976250773071265 0
0.2074029231522995 0.5756804491743506 0
0.2097537381569526 0.5463008141288485 0
0.2849155795027495 0.5671080537187955 0
0.183137310750893 0.5589502460477785 0
0.1807813003715515 0.5883234404636573 0
0.1854879405554529 0.5295722194497751 0
0.4985774028751891 0.7765011749192932 0
0.2121083047229024 0.5169206847075108 0
0.1878384248729176 0.5001909475372834 0
0.1588767037155711 0.5422613062668031 0
0.4671517436936724 0.847814150514502 0
0.214463399180172 0.4875356877988123 0
0.1901894663360433 0.4708068150793407 0
0.1635692668261678 0.4834599644611647 0
0.1659169726465057 0.4540812886876013 0
0.1393021276042292 0.4667322960607633 0
0.1416453440337565 0.4373625005398428 0
0.5156223436343246 0.8810647224029632 0
0.1153508153148521 0.4495621165542539 0
0.1174354998004689 0.4205763195501961 0
0.1123847367379083 0.4777584510679568 0
0.2269657602256756 0.6511644409204148 0
0.2246074859899705 0.6805293159826504 0
0.2003578827971213 0.6638086998721118 0
0.1980000946335695 0.693166758357511 0
0.1737546011456604 0.6764481172448631 0
0.1714003971451212 0.7058027170533184 0
0.195641219135534 0.7225205795134769 0
0.169047484881755 0.7351591042794142 0
0.1932813186815029 0.7518706872746052 0
0.1666924257163377 0.7645075071139547 0
0.1909238361606912 0.7812163832658896 0
0.1643362119608973 0.7938483590876799 0
0.188566158915649 0.8105577050126013 0
0.1619810252025441 0.823187547094581 0
0.1862087133574892 0.8398953645881064 0
0.2127940190736543 0.8272676798597355 0
0.1596247173465282 0.8525214059039805 0
0.2104397469940859 0.8566096645487261 0
0.2370247189252758 0.8439817695951816 0
0.1448109171124431 0.718469060591557 0
0.1401070306931824 0.7771538750861995 0
0.1353971046313399 0.835814726812705 0
0.1330427911789544 0.8651459052373085 0
0.2393814907755094 0.8146383290186276 0
0.2636123468273294 0.8313518587623299 0
0.2612524772314567 0.8606942958515913 0
0.2878436921025856 0.8480665034090499 0
0.2198814496760816 0.7392466043920429 0
0.2854821832926947 0.8774076032748388 0
0.3120744106481184 0.8647815834785288 0
0.1572693745700018 0.8818546473279325 0
0.1088201462697874 0.8484436072473024 0
0.1064656437727705 0.8777699244568637 0
0.3796201817116359 0.6634165722387692 0
0.3819828295187104 0.6340285854067836 0
0.4062562090001129 0.6507703485155641 0
0.4086195846214995 0.6213744314050438 0
0.4329002754654518 0.6381214264225274 0
0.4352619811303837 0.6087179587677495 0
0.4109786435632767 0.5919721989332648 0
0.4376231084169238 0.5793127937786511 0
0.4133340048751086 0.5625631330164147 0
0.4399863950627841 0.5499024524462122 0
0.4595446373561319 0.6254662093511903 0
0.4156922342164215 0.5331508844297159 0
0.442458489675695 0.5207205420346434 0
0.4666613297391406 0.5372811951444445 0
0.4691378335834983 0.5081015320640311 0
0.493328871845223 0.5246340999559291 0
0.4956933382368108 0.4952135314402753 0
0.4187294510063918 0.5040277643674441 0
0.3915088833078806 0.5164480239754176 0
0.3944362270119158 0.4870598804847405 0
0.3672417615286102 0.4996879400572596 0
0.3866879273882954 0.5752252836442057 0
0.5199759223587234 0.511935094132521 0
0.5239089697938627 0.482748539822312 0
0.5176065419092144 0.541349018221988 0
0.4571825051099304 0.6548722406470854 0
0.4838289515313925 0.6422166433318176 0
0.4814651624549698 0.6716239474478893 0
0.5081153709378574 0.6589680168791422 0
0.5104822261395907 0.629556271777878 0
0.2387377612014052 0.5042683964869642 0
0.2410941085632942 0.4748753932996952 0
0.2653746266778135 0.491614671464101 0
0.505749315090267 0.6883758849778618 0
0.3144361588941768 0.8354366246275232 0
0.3386701039505153 0.8521546961199734 0
0.3363071027982738 0.8814995994132482 0
0.3629031188025495 0.8688735489715527 0
0.2677315508550504 0.46221229216768 0
0.4713662312255141 0.4784010909934441 0
0.2588960215583646 0.8900341575950879 0
0.5470978593137094 0.8099455896025418 0
0.5442709091224025 0.528681468401907 0
0.3605411062424424 0.8982187246804246 0
0.3871354882967269 0.8855923674548214 0
0.2973930790832356 0.7307255239219314 0
0.2659684314832347 0.8020117190992981 0
0.3091837048533348 0.583837709840617 0
0.31154082685671 0.5544558251857997 0
0.3696121285709831 0.4702900526987566 0
0.2920010454472293 0.4789520826324534 0
0.1928020967618449 0.4420890262110931 0
0.09116040521021296 0.4327596982827922 0
0.09320635413145695 0.4038434012473724 0
0.5643761261950075 0.9137634541629135 0
0.5347726609627759 0.6463107125716754 0
0.1197375250540068 0.3912774915990445 0
0.09549615670119732 0.3745791415126211 0
0.5371383012790487 0.6168971707538092 0
0.08224607720960853 0.8610685291209529 0
0.2831204486857561 0.9067448142706553 0
0.0845989652557872 0.8317438582884387 0
0.3847714834826586 0.9149356496181423 0
0.4113667847668872 0.9023110311401283 0
0.396806049518148 0.4576046733188498 0
0.2943759496755455 0.4495462415112094 0
0.5614362353872786 0.6336520186458463 0
0.07997656423341282 0.8904000194936058 0
0.1041239207730597 0.9070954578528073 0
0.07763884204015525 0.9197243615131057 0
0.4137312869511482 0.872963389911847 0
0.3410332583950028 0.82280514295137 0
0.1761093403783356 0.6470922207986131 0
0.149510322059117 0.6597317585684963 0
0.4791018017838208 0.7010297084677874 0
0.3339447633696931 0.9108405226250496 0
0.248873474268158 0.697266197116197 0
0.1518632642870412 0.6303785309407433 0
0.1252682190954284 0.6430167549741821 0
0.1276208074547926 0.6136675173434269 0
0.1010170612790859 0.6263230975990816 0
0.1033794338107918 0.5969617158165625 0
0.09867606670326079 0.6556721621315429 0
0.2439978316568937 0.4451356369186932 0
0.3577116470491141 0.6172939687068946 0
0.5128468725202032 0.6001514616040506 0
0.5418956290666531 0.5580940892503669 0
0.3168010314896198 0.8061056997011616 0
0.3647411342442313 0.5290652337140085 0
0.5033785101171141 0.7177705400721547 0
0.5300317276782733 0.7051262168394027 0
0.5276593275483943 0.7345213027843521 0
0.5538725760803456 0.7218437111137752 0
0.437959301897433 0.8896946525012099 0
0.5518663418595009 0.7512656603342802 0
0.3404939523097464 0.5123665758482094 0
0.4357261868357266 0.9188489951920303 0
0.4622119024566996 0.906388400317707 0
0.4599842275107476 0.9355342321038137 0
0.4862311750278335 0.9230717337476498 0
0.5947038554160599 0.844025903874183 0
0.07703569779545844 0.6096394435827742 0
0.07918486508553263 0.5802574449791642 0
0.1057313586212545 0.5676151837830908 0
0.08150136587947732 0.5509061284557082 0
0.1080795489188793 0.5382684713615714 0
0.08314084676674449 0.5204048519766115 0
0.5684084035500397 0.545095727264912 0
0.2567120839221879 0.9191147903981997 0
0.2323438237064477 0.9026183157692671 0
0.05619634775844884 0.5336889998542651 0
0.5824882105168111 0.7386121339223146 0
0.2311177047711556 0.9306398259698625 0
0.2059355849607483 0.9150526465808821 0
0.3720234050627205 0.4410184434306539 0
0.5767454420465671 0.771156489134868 0
0.5706422551021334 0.5145389869893149 0
0.05836960110240857 0.8450888343304225 0
0.3434380809797878 0.7934830622037647 0
0.2949944039864943 0.76007999702449 0
0.2707564332460677 0.7433575332957481 0
0.241734133115459 0.7852994851902897 0
0.4038916805271731 0.6801625033056261 0
0.4767015191883817 0.7303984555781902 0
0.2630130223450406 0.5210066581757941 0
0.3358098375692939 0.5711790588957987 0
0.3186268477852361 0.4662847843284432 0
0.5556466293724978 0.6923902407593021 0
0.2807597426775116 0.9360779006265685 0
0.06774494401887132 0.4165719727084143 0
0.0641981659541932 0.4459349357601032 0
0.6412328254991984 0.9335307560866664 0
0.1272494836370243 0.361635727134527 0
0.09791037482021453 0.3463420221430225 0
0.07195549782230737 0.3581340700436281 0
0.0744193112610369 0.3288537394260721 0
0.1454756616419491 0.3798811934737467 0
0.06055722192306429 0.1692653961331508 0
0.07282861724731465 0.1453146290486748 0
0.1014994456969331 0.1405959890879378 0
0.08208070331893319 0.1185513154580248 0
0.110850014173117 0.1128150698474703 0
0.09128816117880145 0.0908766502248341 0
0.1200975746516609 0.08494323539807935 0
0.1392108764056938 0.1067623835043329 0
0.1488421367940265 0.07895734148642658 0
0.1685083388597415 0.1009671367413551 0
0.1779204124461622 0.07387326760866614 0
0.1578920597917119 0.05216898721733848 0
0.0617596142460054 0.09787016067335996 0
0.06979241880364445 0.06863217458832982 0
0.3979316829182827 0.4291913827031391 0
0.4227875657329149 0.4448944770358766 0
0.9369977282768716 0.1408167568131772 0
0.5628452480664321 0.6056313874258429 0
0.9502821881801935 0.2771210328098537 0
0.3202785553515524 0.4381095370356923 0
0.2967272943099577 0.4201262970388676 0
0.8403902025740784 0.0477468332019565 0
0.6053450750546432 0.1353585833379977 0
0.05836481362831891 0.5042354014030278 0
0.9150457051377385 0.946902987270809 0
0.9032132498986948 0.8149489845611373 0
0.9292395500314014 0.8067048949889757 0
0.908421243175253 0.7842649693526016 0
0.6561329508832162 0.3077229638150586 0
0.9459738942064412 0.8570829494859429 0
0.8140189321746975 0.06110799976016018 0
0.7868307855228638 0.04832283591518788 0
0.7870761445280656 0.07614879539679581 0
0.7616482001597829 0.0632274802342036 0
0.8502982183971113 0.8278134271468112 0
0.5854258814941797 0.6258187994462424 0
0.1022283756356166 0.9375316231698259 0
0.1284071227096645 0.9239816204776365 0
0.07625512728329109 0.9488971842867877 0
0.05096913528422437 0.9323386563348052 0
0.6406862430510394 0.4335286913039979 0
0.6272753071107757 0.4070084971369334 0
0.6107988294978114 0.4318983716393751 0
0.0510370970453925 0.2120695429705056 0
0.04632925247897668 0.2404528916288314 0
0.06529501645023394 0.2589515266809816 0
0.4854523207421341 0.95234402840611 0
0.5117657273142934 0.9394338918407339 0
0.5402872240814266 0.9553395692814882 0
0.3764312842182765 0.4109864414802821 0
0.5974854595107769 0.5342080763033878 0
0.1468571224551478 0.3369591135558706 0
0.7615645469741462 0.03519387082477521 0
0.04047766195433411 0.4273003846129447 0
0.1973488359866171 0.094995050381113 0
0.2067793766266188 0.06791428953745404 0
0.2254177152044585 0.09190294526734716 0
0.2373472743975524 0.06559235396588359 0
0.1843062846420348 0.1430137562082507 0
0.05661034247191021 0.8145715354171428 0
0.08632327142372004 0.8023407158147952 0
0.0638139779474346 0.7842041696611215 0
0.0893781866280951 0.7728284637435365 0
0.0667306964414629 0.7546445172209808 0
0.09194258867054395 0.7434315134154574 0
0.0688481024290119 0.7252380740987699 0
0.09428922406369589 0.7140777880205287 0
0.07090586721842651 0.6960941902804166 0
0.9447000365178908 0.9343202307499079 0
0.9381697488951568 0.9635235145444149 0
0.9388841783112432 0.7786667986520464 0
0.9207183554115776 0.7554134348702692 0
0.9477093589128833 0.7511057403812536 0
0.928853696130382 0.7277055257244152 0
0.9417477207541745 0.09029794381638762 0
0.956632890496674 0.7240509715797147 0
0.9367312015550043 0.700714863808372 0
0.9471858985486501 0.6723800282610901 0
0.9105094637781543 0.704028014416218 0
0.6351246939515025 0.8010964765018701 0
0.6033419739001427 0.7933357832423527 0
0.6238045861756899 0.4626916548026478 0
0.5939332748198372 0.4560040977791706 0
0.5813843880626119 0.429612032082221 0
0.5645823864175229 0.4528210915174986 0
0.5520112606543649 0.4267473965234285 0
0.568978630263729 0.4081948753596704 0
0.541650929612264 0.3981239868430321 0
0.528209560206066 0.4232618993249959 0
0.5758386160261854 0.4809421183875365 0
0.2140495658451225 0.3719501186498768 0
0.189368111810376 0.3854590358168408 0
0.2182472793170586 0.399603619379887 0
0.0294674780978717 0.5168477831557312 0
0.7645795776308986 0.3352663222198028 0
0.9602346619612474 0.1655728867345664 0
0.6816708382241468 0.3847113057051663 0
0.9167331084044126 0.6788340306409255 0
0.8782847755821621 0.7729310506216227 0
0.5227492449482861 0.1213271826911039 0
0.5136583413752682 0.09190440760678359 0
0.485049165341945 0.08386825354377681 0
0.542078389611973 0.1004921791578782 0
0.5336126186895696 0.07082302268391905 0
0.9545210001122466 0.195650151514167 0
0.2443043284656241 0.4141465761402132 0
0.2740215876340304 0.3963449048584056 0
0.4635236952212091 0.1048450617893065 0
0.4569233168779024 0.07546644445564654 0
0.477867346432205 0.0532869258466816 0
0.435613806960218 0.0926529071240571 0
0.4291320319633976 0.06503172168638888 0
0.736066872028053 0.04964000574131666 0
0.8823979778560037 0.4928318217687711 0
0.911247704679632 0.5014420045114913 0
0.9236844952040995 0.5331781773904894 0
0.940280382102989 0.5107047943928563 0
0.9329876105105812 0.4821252638906451 0
0.6144139709296053 0.7428656103986335 0
0.6069371767640164 0.7135632170891798 0
0.94302304359223 0.05360527816291427 0
0.8140819552301148 0.3397280764300094 0
0.638484602153402 0.06212807143987775 0
0.0523893486240532 0.5923274670583654 0
0.89880501240444 0.5528379394238051 0
0.9287152481717004 0.5664953392828594 0
0.925741038851744 0.5998353654562283 0
0.4618236547749023 0.3926116153740432 0
0.4822214859282585 0.4140461889385538 0
0.4490619453740397 0.4244983080207392 0
0.4742701631961246 0.4435775481428036 0
0.2439908948144776 0.1171753430300896 0
0.2559741961105033 0.08694403557890817 0
0.287213495392194 0.08123061521320579 0
0.2681051539397562 0.06005535796875416 0
0.5824165603734026 0.6548458110298867 0
0.9504678323763731 0.1166799789173562 0
0.3656169765555562 0.09982656621439434 0
0.3490537696816306 0.07524974175227184 0
0.3773569938293371 0.07394306594707195 0
0.3185556360996762 0.07736019648662501 0
0.3295281308173004 0.05125541295724445 0
0.4574280331323335 0.9696240554421907 0
0.1259702663214496 0.9531175880709353 0
0.152290764230945 0.9399675992863779 0
0.902453194262707 0.4683797796330429 0
0.2053030000484923 0.9474747749348547 0
0.05562180725332877 0.474172631091462 0
0.08504090349184257 0.4909076336021915 0
0.9011480799049676 0.6187787654356465 0
0.9260795580688789 0.6323529330048894 0
0.952169963537125 0.5870191641248894 0
0.2989676271656798 0.0534934373204945 0
0.5806046474651168 0.1505459038753493 0
0.5708494891136507 0.1040027175898281 0
0.1009095360961932 0.3158209053262599 0
0.0759375604410043 0.2992681620927865 0
0.05031442888000004 0.3171823995040424 0
0.5856935397517065 0.05369865925764628 0
0.305718705267669 0.104691762831793 0
0.8212049047959271 0.3834512157349479 0
0.9447237970293856 0.5473906525238106 0
0.6310820273688902 0.1477529588861262 0
0.149569298071203 0.9672770793478744 0
0.8672343127056463 0.03057143020654191 0
0.5386748521680265 0.9263618222798209 0
0.4886180956530654 0.8937581891584813 0
0.4403829580406324 0.8603732258883119 0
0.4160900939674035 0.8436091185987853 0
0.1100365853270595 0.5081778473960827 0
0.09658023629013968 0.6847383277378278 0
0.3676738647561241 0.810207172988373 0
0.9730818659485174 0.9264705882352937 0
0.8176726909113397 0.3107407627060962 0
0.1784569536625877 0.6177233159550242 0
0.2731440143190053 0.7140081346158391 0
0.6660893953270712 0.9227167560083606 0
0.6902931193117321 0.9395056119646561 0
0.7177901283612043 0.9254573660857679 0
0.5252346324064743 0.7638766993956927 0
0.1791778094816333 0.9276764683801904 0
0.181537325140615 0.8984912800769032 0
0.2465267709469167 0.7266419224281483 0
0.07254251123304933 0.6677841430441975 0
0.07480974790390693 0.6389302800354797 0
0.04903907585308803 0.6504372264138705 0
0.1229585072163932 0.6723421246592004 0
0.1296140612226963 0.05884161848649849 0
0.1329473141557997 0.02917590526492475 0
0.3070613644072339 0.9228504081393037 0
0.1183226650034148 0.731012277005803 0
0.1565373085452789 0.5716306186263846 0
0.7500083006549731 0.9745334569799584 0
0.762954818532389 0.9461583624655199 0
0.8090762431447533 0.9707713622025274 0
0.2754893950615069 0.6846232755808493 0
0.4524256121558992 0.7136497898140037 0
0.07035454523899642 0.3873461190970477 0
0.044774247256544 0.3703734267306004 0
0.3578595395041089 0.9268858890363445 0
0.3831307996392715 0.9472409506359269 0
0.3299233837536156 0.9370216650983402 0
0.9738977064441736 0.3375191549482793 0
0.9490679647225911 0.3235304355746859 0
0.05342416613978046 0.5628907436053989 0
0.9528687496666571 0.3516502006008322 0
0.4548097592625696 0.684265784354244 0
0.4089962809328183 0.9316544907843434 0
0.9741626150605786 0.1029411764705885 0
0.2293174364291003 0.6217930784248591 0
0.9748483184441263 0.2543404956667183 0
0.113433469281316 0.7897328553826468 0
0.6896631225685709 0.03038757354157828 0
0.1471657705369444 0.689100630591198 0
0.1007274821609782 0.06512422930285977 0
0.1612243020028487 0.512868685680532 0
0.5891521544188797 0.930037258609793 0
0.2346749273265375 0.8733160375205299 0
0.1838621088253858 0.8692217307014957 0
0.7938593762672776 0.2938328832886382 0
0.05029572706982749 0.8756480484363413 0
0.03050087789686862 0.854351998981135 0
0.6595613017906958 0.02403550505645508 0
0.3890647868424474 0.5458238074165255 0
0.2997514175656331 0.7013541363849091 0
0.02951999044138981 0.1654712260463655 0
0.3096650455336284 0.8940207552002707 0
0.6901694077664088 0.9701679158455474 0
0.9275351177217819 0.02512462158534506 0
0.4909406008869909 0.554009064208613 0
0.02347446551324062 0.7796614441987864 0
0.1307009050184009 0.8945038259930331 0
0.4305305125696202 0.6675139157103716 0
0.02438397082613653 0.7205982376584279 0
0.7512690276230185 0.2015682471029766 0
0.7274851371703894 0.1846754607247751 0
0.7018489964233314 0.1968863016844352 0
0.03015773091008161 0.1023026870147187 0
0.1672081609048457 0.4251147767542989 0
0.8696242054616193 0.9744296858176651 0
0.2794984130297146 0.9691278412863114 0
0.2199604628016563 0.9755124707442526 0
0.2050567003238759 0.6050633522412475 0
0.2896251678069338 0.5083483542152181 0
0.8552056261173239 0.1815672344335275 0
0.5466320500665749 0.4992519563524446 0
0.2081322528256367 0.8858849458663006 0
0.2222550824417051 0.7098952296316711 0
0.6018457503481326 0.02482975092096307 0
0.5562011443767712 0.04967331702605171 0
0.3386768279793639 0.9771795034567758 0
0.1548970340720895 0.9111067146423375 0
0.07244194466586151 0.02254876447251275 0
0.9325163213040554 0.8859421957778609 0
0.9764459275583568 0.3959425926853921 0
0.4642782872448378 0.566662590999086 0
0.3970126543051317 0.9751309069260081 0
0.500152917135231 0.4650163264244609 0
0.4489064086519525 0.4589953177639882 0
0.4211728942887573 0.4741747140484153 0
0.8498454452368298 0.240007051902848 0
0.1302297223134374 0.1347725039159943 0
0.3310850740970542 0.6299492748375957 0
0.3652693034839169 0.8395384150784226 0
0.1542097623723869 0.6010170819812917 0
0.5310612702550518 0.4518861474869779 0
0.9751155074574054 0.4550726681837021 0
0.952806929880235 0.4395351474987912 0
0.4619086803978354 0.5960631037420214 0
0.1299590601278716 0.584311192163957 0
0.660518239021049 0.07532775555901122 0
0.8285392548563486 0.193867630389886 0
0.8567110662394984 0.8774478768568361 0
0.02693314874502106 0.4549314444132703 0
0.1110545930441702 0.8190938034953773 0
0.2027106789694495 0.6344408513687118 0
0.6309917706244719 0.9757794901738475 0
0.5693873281572199 0.9724150582742567 0
0.2151509974969366 0.7979275200078726 0
0.2902016504292822 0.8187294739770831 0
0.6967660470381756 0.2537889156496649 0
0.4861937239116774 0.6128104292801234 0
0.3772546306716716 0.6927973701796296 0
0.1377182391355751 0.8064718611598649 0
0.6186220460715258 0.8611128074602141 0
0.3894944739868776 0.8562530903183013 0
0.3843433587403967 0.604635639293047 0
0.2363760485943939 0.5336507773240206 0
0.9745286645945755 0.867647058823529 0
0.9742472483656953 0.8100660770510766 0
0.3068208948931999 0.6132192614846104 0
0.6779855620040116 0.1542698653912408 0
0.7828722196585711 0.1312856201482137 0
0.2258157061055074 0.02300432390601026 0
0.4852941176470599 0.02547133540542468 0
0.7356985371200562 0.09874338489497719 0
0.532229681388374 0.6757057330240983 0
0.1368556257516831 0.4957707534264926 0
0.9094442781375057 0.1268667360751097 0
0.2701930904328503 0.4312519914391782 0
0.5706389152431361 0.8275845872956873 0
0.2170802946147452 0.4584733196707846 0
0.7248769313809745 0.2138701689853627 0
0.276778368947318 0.02929064592603398 0
0.9720607856615695 0.5131788445164366 0
0.4280361377724829 0.03078619597301402 0
0.9750818289353895 0.6312814749442139 0
0.3971995349072321 0.02534544147181539 0
0.8370022668081357 0.1061791063829741 0
0.8950740826899009 0.3029289980387239 0
0.1424540244588454 0.4081624829562241 0
0.9214239622287095 0.3196232316044404 0
0.5573687264826411 0.6637128997312741 0
0.7672510534812097 0.306112205211162 0
0.6871528636639161 0.311362247304641 0
0.2175063469406562 0.7685855377000919 0
0.7486334256393811 0.2308011014964724 0
0.8258673970218972 0.2230910514912426 0
0.4015175743855958 0.7095342366263816 0
0.1159416545552593 0.760329309767547 0
0.4885654320460848 0.5834060015606505 0
0.2606447841927872 0.550381525296287 0
0.3334484464605802 0.6005664402379343 0
0.1424870296603988 0.7477718556407459 0
0.6984390625375096 0.2257043612672781 0
0.5152244587553465 0.5707424127575167 0
0.8648252772685618 0.3738739606942704 0
0.2872710872743041 0.5377323564981247 0
0.3624232547864635 0.5584958520461846 0
0.4281591186738669 0.6969008944077043 0
0.3600750432764194 0.5879091667140902 0
0.2441013024907044 0.755967646767748 0
0.790701594197352 0.323793418112319 0
0.5393568185015492 0.587725157736228 0
0.3381532450059483 0.5417757201287844 0
0.2683397510402601 0.7726859540413652 0
0.1206878867038385 0.7016233681010191 0
0.5701975188051369 0.5772837580035484 0
0.2925826233372096 0.7894040524230814 0
0.852519644289597 0.2107831963141729 0
0.4500432162614192 0.7430162743906403 0
0.3458520298232062 0.7641558430434009 0
0.3701052226268548 0.7808778038560569 0
0.4743198933306483 0.7597509865002009 0
0.8791817408774191 0.1984733345968823 0
0.1323001193234568 0.5549523413490438 0
0.3138798218427682 0.525061632182619 0
0.3919024746277475 0.8269299873416618 0
0.5009785475777003 0.7471365265416472 0
0.903091790359323 0.2153839482748393 0
0.4186238770327179 0.8143199317093844 0
0.1345621475065831 0.5253832342467543 0
0.4428380085725604 0.8310416417904172 0
0.4913139937415349 0.8644701478793265 0
0.4645273131615769 0.8771164020131106 0
0.5228498978046059 0.7932223881069616 0
0.9286423246154113 0.2038250764591292 0
0.5495849684156984 0.7811354728830835 0
0.3192163737981963 0.776778834051964 0
0.5736622458661845 0.8003492853229509 0
0.3162322638166509 0.4956764892691569 0
0.3428731249218923 0.4830020722239765 0
0.3452049268265413 0.4537432571846841 0
0.1205541741138507 0.1625047774228188 0
0.02583169259032347 0.6049544865926065 0
0.7337861152444 0.9500480307759718 0
0.02410964999966081 0.2226179812750023 0
0.05328901950731968 0.1245350292099531 0
0.8848119298502045 0.9479579742989133 0
0.9508112071658743 0.6158331431832158 0
0.8594261939446521 0.4342451949553292 0
0.05291986933186477 0.904472132411642 0
0.5209578972105233 0.3776295355609616 0
0.6161590588945073 0.9492749663968298 0
0.02682834791146915 0.5458023769129311 0
0.3464956029818536 0.4214008109192094 0
0.4036766809949638 0.4010196733563689 0
0.9740034321626931 0.6606491718484524 0
0.9757894069377244 0.7468592769383655 0
0.8918093639120628 0.05325957429154421 0
0.4337914537985355 0.9473226982689306 0
0.543706220812043 0.02410675404034163 0
0.5136308510913586 0.9100792719257864 0
0.6198672653289093 0.8284385994374716 0
0.506755707726973 0.06464710000170948 0
0.5402662895232528 0.8974813396906317 0
0.05093781253077734 0.6218910685662646 0
0.445371663811221 0.4924661713195928 0
0.673769383576302 0.239413621304859 0
0.9751441838865937 0.0445383238922703 0
0.02802597883672064 0.04348674194447411 0
0.8276649643664952 0.8859219411357869 0
0.02470391454799004 0.9249760698854012 0
0.02779331608822744 0.9540702504709345 0
0.9763457681665906 0.2794117647058827 0
0.9493800699340171 0.8253378358154395 0
0.2186875978075953 0.428974076402498 0
0.2551452720111251 0.9472726766189101 0
0.5968485901668162 0.4065147681267316 0
0.3062597567360332 0.3941076342049817 0
0.6359298109011096 0.1743779426356991 0
0.9765242507000761 0.5735294117647067 0
0.5650188298563676 0.9422392181063961 0
0.07196597700971508 0.9759825449118336 0
0.590385874085157 0.5594970236559639 0
0.3414580548638451 0.02543449733057102 0
0.7853010041600561 0.103262101902732 0
0.8121414023503429 0.09034791034169282 0
0.7606804037627199 0.9212996571188926 0
0.5798566069798404 0.7041736542922958 0
0.1927619305226593 0.4131612169775231 0
0.02433740309663607 0.6628406212575124 0
0.02517781948381675 0.3061951631670981 0
0.1609110251823416 0.1270059977921577 0
0.6667674047915808 0.2821625150293745 0
0.9499035946950677 0.2442298240728383 0
0.08876416043011537 0.4609210345263494 0
0.165844698324659 0.02539193666370537 0
0.05172132638186999 0.285864663418783 0
0.5034482865836934 0.4349000449533117 0
0.7097091591784768 0.04883125963898133 0
0.3586984162065575 0.04936104346429343 0
0.7132367395241795 0.8975569371483361 0
0.9510025723600224 0.9070653675341332 0
0.6351771310567202 0.3814330786544656 0
0.9597449795643825 0.9789876057732647 0
0.04637890275015238 0.06015435638864652 0
0.02210413626545105 0.250250370670297 0
0.4069978872627456 0.07619528139662102 0
0.1749628431119619 0.9546645641900837 0
0.8382352941176471 0.02165621310900023 0
0.8546572349593853 0.9512818449932304 0
0.9302500885492333 0.4523014847080493 0
0.409303332704804 0.04865928020956323 0
0.4852980087779065 0.9785744136922174 0
0.0478724984973411 0.6784669256565529 0
0.3037504003170727 0.9493992008149563 0
0.6659697912644689 0.9489043410583662 0
0.05358179827725651 0.3427446351776678 0
0.9502720201244524 0.6451939810079288 0
0.5961358431114108 0.5031178186734308 0
0.5480040475042874 0.4734030278880503 0
0.557912498975261 0.07753024382493212 0
0.7837645665301639 0.0223810332886536 0
0.3512257485551811 0.9534666959581791 0
0.9317209177622876 0.4236228430191876 0
0.5431378869537437 0.9795209664159727 0
0.9468486286996773 0.2193077006382025 0
0.03731121666606085 0.8326336999997014 0
0.04809583710789933 0.1481490468172905 0
0.4501400002370758 0.05011581339377114 0
0.5738693072829483 0.3775959238574209 0
0.511592606275848 0.4023927447717774 0
0.6652492401120371 0.05050336447463966 0
0.5258435135992995 0.04602191076993234 0
0.0466059274222852 0.7072742012848305 0
0.8772171230948621 0.8228124667111523 0
0.188073568423036 0.05026008111768299 0
0.01913147541415777 0.3686383274708556 0
0.9523412729784779 0.4664318965304402 0
0.5755545961884472 0.6788764692650252 0
0.761566460987733 0.08865052297125037 0
0.7890355984625665 0.9519933898009876 0
0.6522403726517569 0.1578554716744698 0
0.9806936676050833 0.7212453876644511 0
0.6190529936499096 0.04602804313857567 0
0.7107153525413972 0.9520434002502689 0
0.5924428511508865 0.818746831834529 0
0.1867058695904988 0.1186394834433296 0
0.8691174853295415 0.8499672704467564 0
0.1271005479180528 0.9775611352562126 0
0.6418094882423027 0.2802555517812603 0
0.8919809841401728 0.6801353056841467 0
0.8652864503597393 0.4030180045864339 0
0.4212128549300748 0.4196526614653805 0
0.1357713576610123 0.181935598554684 0
0.9792191514377471 0.1886610059539811 0
0.04525783024085839 0.73620365903597 0
0.9284248971539109 0.6573870935136893 0
0.9528374434571127 0.7983181973026701 0
0.5883433172378596 0.9548552040353032 0
0.9536286809435794 0.4093293472640728 0
0.1170261903662452 0.2969949915111473 0
0.4105809213771165 0.9552299910781852 0
0.953899954149283 0.380786522209146 0
0.6666144453858733 0.3324442679688162 0
0.6156615362814156 0.5178727669584586 0
0.08592922657253144 0.04443497829274801 0
0.6433305570198714 0.8519888952811249 0
0.04955780442331931 0.3999872911883261 0
0.6000961956299991 0.7636253535314014 0
0.8855448450633299 0.4446905909027403 0
0.3865331068899577 0.04964164912799823 0
0.9141725620544368 0.04564277732066657 0
0.9425966591728933 0.302102434165602 0
0.9564201417357834 0.8823529411764701 0
0.1640622759356872 0.3949546326062313 0
0.2333081861952851 0.9550294550117229 0
0.04168853411605589 0.2626503972079408 0
0.04410731784033206 0.7659673279550882 0
0.8298009957040763 0.9535831841642437 0
0.6842691610059407 0.1807884820939269 0
0.6005376356736492 0.4785354384056579 0
0.1620304504473464 0.3619590948659183 0
0.9822821874869161 0.1617647058823531 0
0.9196689564712306 0.9784555885244863 0
0.8432896002427857 0.3839892095221802 0
0.9784690938950329 0.02153090610496727 0
0.02153090610496711 0.9784690938950327 0
0.02153090610496694 0.02153090610496666 0
0.3208437627653066 0.4139361909905659 0
0.8877645874789466 0.7962905020378452 0
0.01736967621958774 0.4264705882352933 0
0.6590085562174102 0.3794024942536103 0
0.9543868382640799 0.5280856612685975 0
0.6067572591058977 0.6465589009963619 0
0.1202314344684731 0.3373908584995798 0
0.5000000000000013 0.04270476276540519 0
0.7427442775348778 0.02128224208702106 0
0.9542210098077115 0.4914389040152503 0
0.8867949713568702 0.7102634318365739 0
0.5693200115971903 0.3529115930230162 0
0.04641671353762289 0.08031494366673486 0
0.7412108750130735 0.928169479699823 0
0.8975085083228378 0.7592651465164465 0
0.2176140713709124 0.04760265855309337 0
0.04802309279573619 0.1895740002858912 0
0.05399154175279408 0.9566643412388331 0
0.04214537460041279 0.7941176470588233 0
0.741216650364753 0.0755683109032681 0
0.3585245040104993 0.3955555939611423 0
0.9803730004376896 0.9811041314799441 0
0.6453856621799522 0.956763097110532 0
0.6751556623255693 0.3591132971016776 0
0.6109577678883733 0.5583865450420263 0
0.9335278557631825 0.3654731605923522 0
0.7580191392972506 0.3560017187889214 0
0.9046551277646642 0.7318103016139713 0
0.1693821072945536 0.9792747709123555 0
0.6763770358901979 0.262413577897368 0
0.02091703597095596 0.8746308857525377 0
0.6062340625446615 0.6159045184823164 0
0.810367689179742 0.8718052572824264 0
0.8100555577247186 0.362631423811294 0
0.01776372835657419 0.8358353875147977 0
0.1117815400800874 0.04489059795419403 0
0.05882352941176505 0.04090148265610261 0
0.07938207352715421 0.2774320399637736 0
0.5853909862839431 0.6017961238697602 0
0.5828552122530026 0.1256944431683787 0
0.6216666689744503 0.1908999911098281 0
0.3247155690552315 0.9592349310261304 0
0.9580426760865023 0.5636005037203184 0
0.6674009241141314 0.8454571692282533 0
0.2481671203627265 0.04357349679474259 0
0.9342272424517114 0.3382331236908669 0
0.6448964816811732 0.04073643222813922 0
0.4181889369643749 0.1064550958602317 0
0.9287210638337119 0.114495248778549 0
$EndNodes
$Elements
1 2224 1 2224
2 1 2 2224
1 716 718 285 
2 238 757 678 
3 678 798 238 
4 116 826 115 
5 737 738 286 
6 718 793 285 
7 809 935 655 
8 710 1064 939 
9 361 731 730 
10 256 1113 749 
11 749 1113 748 
12 204 804 203 
13 244 700 698 
14 732 734 291 
15 939 1108 710 
16 683 692 227 
17 738 739 286 
18 791 920 677 
19 682 961 768 
20 919 1081 927 
21 355 356 28 
22 919 927 548 
23 243 815 684 
24 357 705 378 
25 662 1188 887 
26 902 1059 653 
27 390 1124 855 
28 887 1111 662 
29 293 870 736 
30 685 755 234 
31 855 1070 390 
32 2 359 47 
33 655 935 715 
34 790 1114 1081 
35 976 1076 401 
36 690 1076 976 
37 359 1084 47 
38 406 1086 703 
39 680 1056 241 
40 241 1156 680 
41 810 831 631 
42 686 1167 260 
43 967 1112 773 
44 234 809 685 
45 1081 1114 750 
46 708 709 236 
47 674 1029 899 
48 27 355 28 
49 227 1092 683 
50 136 755 135 
51 713 1165 657 
52 250 1131 934 
53 734 1040 291 
54 773 1095 967 
55 357 378 355 
56 272 950 691 
57 657 1165 661 
58 224 804 204 
59 655 1078 809 
60 781 1071 222 
61 653 1098 902 
62 684 824 243 
63 758 1195 263 
64 641 907 751 
65 703 1060 406 
66 239 743 61 
67 387 1115 874 
68 736 782 293 
69 756 994 235 
70 90 850 245 
71 742 1021 640 
72 768 961 767 
73 257 696 83 
74 826 1092 115 
75 361 1087 731 
76 640 1152 742 
77 809 1078 810 
78 698 805 244 
79 696 1131 250 
80 234 755 136 
81 872 1077 230 
82 377 1211 816 
83 260 1030 686 
84 1077 1109 230 
85 777 787 786 
86 777 823 787 
87 636 781 780 
88 235 994 783 
89 288 1209 707 
90 872 1056 680 
91 288 707 357 
92 377 816 385 
93 793 794 300 
94 259 1202 882 
95 680 1077 872 
96 882 1033 259 
97 736 870 798 
98 253 826 116 
99 1033 1054 259 
100 900 1158 1072 
101 263 1195 354 
102 39 772 769 
103 677 1136 791 
104 23 1165 713 
105 817 818 366 
106 803 814 287 
107 898 986 393 
108 701 1054 1033 
109 255 1025 923 
110 776 807 779 
111 284 956 771 
112 768 1061 682 
113 31 720 285 
114 782 890 395 
115 491 831 810 
116 866 1036 635 
117 61 743 62 
118 718 794 793 
119 741 1045 742 
120 1071 1122 222 
121 712 1148 59 
122 874 1082 387 
123 1072 1158 753 
124 59 1196 712 
125 889 1099 839 
126 358 1133 1 
127 748 1113 1060 
128 1060 1113 406 
129 244 1065 700 
130 752 754 753 
131 782 1051 293 
132 731 1087 187 
133 16 1038 711 
134 403 404 9 
135 691 1057 272 
136 187 1167 731 
137 236 1096 708 
138 65 758 263 
139 1 1133 7 
140 792 920 791 
141 242 1165 23 
142 419 420 405 
143 281 1100 860 
144 730 834 361 
145 804 1096 203 
146 51 741 231 
147 54 781 222 
148 731 1167 686 
149 771 1112 284 
150 741 742 231 
151 860 1120 281 
152 1158 1165 753 
153 796 965 814 
154 789 791 233 
155 692 693 227 
156 257 1118 696 
157 899 1184 674 
158 764 816 258 
159 1045 1129 742 
160 685 810 631 
161 792 919 564 
162 709 710 236 
163 1067 1083 803 
164 788 812 811 
165 862 918 270 
166 302 1080 1074 
167 422 1107 1094 
168 711 1192 16 
169 749 1034 256 
170 91 850 90 
171 366 1144 817 
172 820 1104 911 
173 808 903 232 
174 19 1061 768 
175 228 752 21 
176 290 1083 1067 
177 395 1051 782 
178 228 754 752 
179 775 807 776 
180 761 764 258 
181 269 1059 902 
182 75 786 305 
183 1094 1107 929 
184 999 1066 225 
185 799 801 301 
186 705 1028 276 
187 1074 1080 819 
188 738 759 739 
189 955 1216 1187 
190 19 768 20 
191 223 1036 866 
192 403 419 405 
193 8 403 9 
194 753 1165 242 
195 814 965 287 
196 277 760 81 
197 298 761 41 
198 298 762 761 
199 386 1082 774 
200 754 1072 753 
201 772 1219 1090 
202 385 1104 820 
203 671 1130 1075 
204 927 1081 750 
205 276 1188 705 
206 608 1058 767 
207 899 1029 252 
208 636 1071 781 
209 757 1138 766 
210 39 769 40 
211 795 814 802 
212 802 814 803 
213 393 1163 898 
214 757 1166 1138 
215 73 775 299 
216 225 1210 999 
217 788 1031 812 
218 775 776 299 
219 777 1176 823 
220 802 821 795 
221 778 1176 777 
222 564 920 792 
223 234 935 809 
224 714 1180 112 
225 1079 1119 673 
226 112 1105 714 
227 74 786 75 
228 278 1216 955 
229 705 1188 378 
230 286 1126 737 
231 755 1036 135 
232 289 1099 889 
233 255 1137 1025 
234 281 1074 819 
235 874 1115 884 
236 772 1090 773 
237 786 787 305 
238 275 758 64 
239 69 822 249 
240 39 1219 772 
241 684 1211 377 
242 285 1130 716 
243 907 1103 751 
244 23 713 24 
245 774 1191 386 
246 720 1130 285 
247 796 1216 965 
248 589 921 544 
249 223 866 785 
250 819 1100 281 
251 887 1188 276 
252 292 1031 813 
253 751 1102 641 
254 702 703 275 
255 782 1155 890 
256 14 789 233 
257 239 1164 743 
258 794 795 300 
259 788 811 305 
260 721 1110 226 
261 419 1147 420 
262 791 1136 233 
263 378 1188 662 
264 279 910 820 
265 850 1207 245 
266 816 1104 385 
267 764 1104 816 
268 953 1163 402 
269 44 815 243 
270 719 796 794 
271 83 696 84 
272 564 1049 920 
273 37 799 301 
274 305 811 76 
275 1068 1069 367 
276 767 961 608 
277 53 781 54 
278 759 1134 297 
279 635 1036 755 
280 291 1141 732 
281 856 1124 407 
282 703 1086 275 
283 1143 1146 916 
284 986 1050 393 
285 1068 1123 694 
286 901 1030 260 
287 248 1151 715 
288 1075 1130 720 
289 737 1040 734 
290 965 1216 278 
291 813 1031 788 
292 355 378 356 
293 715 1174 248 
294 902 1098 220 
295 839 1128 889 
296 923 1075 255 
297 357 706 705 
298 402 1125 953 
299 366 1209 288 
300 785 1026 223 
301 25 1144 26 
302 1147 1195 420 
303 287 1067 803 
304 26 1144 366 
305 230 1109 766 
306 840 1084 359 
307 808 1159 903 
308 63 702 275 
309 30 720 31 
310 62 743 702 
311 780 1152 636 
312 657 1178 713 
313 405 1086 406 
314 795 821 300 
315 297 1140 759 
316 226 1190 721 
317 767 1058 754 
318 701 1055 1054 
319 766 1138 230 
320 400 1146 1143 
321 785 1048 1026 
322 920 1049 921 
323 249 1032 70 
324 262 1119 1079 
325 300 821 34 
326 407 1162 856 
327 251 1035 938 
328 544 921 542 
329 258 815 43 
330 50 741 51 
331 262 1187 1119 
332 1035 1194 938 
333 780 781 53 
334 677 921 589 
335 778 1181 966 
336 882 1202 883 
337 694 1123 695 
338 488 1047 1044 
339 21 752 22 
340 20 768 228 
341 235 1198 756 
342 801 1154 1090 
343 237 1180 774 
344 1026 1048 267 
345 950 1157 691 
346 901 1093 1030 
347 40 769 298 
348 81 760 82 
349 41 761 42 
350 71 1032 280 
351 719 1216 796 
352 862 1145 918 
353 275 1175 758 
354 403 405 404 
355 184 834 183 
356 270 1106 862 
357 407 1124 390 
358 249 1135 1032 
359 299 786 74 
360 284 1112 967 
361 285 793 32 
362 72 775 73 
363 737 1126 1040 
364 224 1042 804 
365 822 1168 249 
366 692 694 693 
367 739 1039 286 
368 966 1176 778 
369 256 1034 11 
370 52 780 53 
371 709 827 710 
372 228 767 754 
373 955 1187 262 
374 33 793 300 
375 827 1064 710 
376 579 1064 827 
377 797 1177 222 
378 820 911 279 
379 683 1092 826 
380 762 764 761 
381 298 763 762 
382 13 789 14 
383 1090 1154 1095 
384 742 1152 231 
385 798 870 238 
386 776 777 299 
387 12 1034 247 
388 809 810 685 
389 701 1189 1055 
390 34 821 35 
391 423 1215 48 
392 694 1069 1068 
393 48 1215 49 
394 277 1186 760 
395 1086 1175 275 
396 272 1057 951 
397 36 799 37 
398 303 821 802 
399 76 811 77 
400 706 1028 705 
401 35 821 303 
402 787 788 305 
403 359 1185 840 
404 374 824 375 
405 396 1208 1052 
406 1090 1219 301 
407 375 824 684 
408 258 1211 815 
409 1052 1208 1088 
410 222 1122 797 
411 794 796 795 
412 702 704 703 
413 801 1090 301 
414 361 834 184 
415 183 834 246 
416 927 1103 548 
417 823 1214 787 
418 910 1127 820 
419 357 707 706 
420 378 379 356 
421 404 1183 9 
422 1118 1173 687 
423 232 1091 808 
424 1044 1047 827 
425 787 1214 813 
426 807 1094 779 
427 248 1120 860 
428 1064 1142 939 
429 697 1203 1177 
430 402 1163 393 
431 235 1205 68 
432 68 1205 822 
433 156 870 155 
434 739 1101 1039 
435 405 406 404 
436 697 1177 797 
437 694 695 693 
438 238 1166 757 
439 1027 1185 855 
440 228 768 767 
441 762 765 764 
442 776 778 777 
443 298 769 763 
444 860 1151 248 
445 759 1140 739 
446 787 813 788 
447 777 786 299 
448 796 814 795 
449 702 743 704 
450 238 870 156 
451 155 870 293 
452 829 1014 481 
453 828 1015 488 
454 605 846 626 
455 934 1053 250 
456 378 662 379 
457 920 921 677 
458 481 1014 440 
459 877 1013 959 
460 1186 1199 733 
461 968 1031 292 
462 828 1016 1015 
463 833 1004 470 
464 491 959 831 
465 219 1061 18 
466 813 1063 292 
467 470 1004 446 
468 875 998 848 
469 607 848 832 
470 740 1182 1134 
471 776 779 778 
472 881 994 975 
473 769 770 763 
474 695 714 693 
475 832 845 607 
476 607 846 605 
477 1015 1016 481 
478 740 1134 759 
479 844 909 601 
480 481 1016 829 
481 7 296 8 
482 488 1015 436 
483 1009 1012 830 
484 959 1013 831 
485 65 263 66 
486 67 235 68 
487 519 909 844 
488 858 991 868 
489 64 758 65 
490 806 913 842 
491 842 913 843 
492 475 904 836 
493 743 744 704 
494 841 1010 616 
495 68 822 69 
496 848 998 832 
497 84 250 85 
498 837 844 601 
499 335 835 333 
500 975 994 756 
501 770 771 763 
502 470 1012 1009 
503 843 913 522 
504 24 264 25 
505 522 880 843 
506 263 306 66 
507 394 783 362 
508 601 857 837 
509 475 926 853 
510 44 243 45 
511 428 838 424 
512 835 881 333 
513 783 835 362 
514 644 997 645 
515 428 839 838 
516 477 1010 841 
517 296 690 419 
518 465 991 858 
519 471 904 475 
520 600 863 851 
521 362 835 335 
522 811 812 297 
523 29 255 30 
524 926 931 853 
525 802 803 800 
526 303 800 799 
527 645 993 844 
528 509 908 880 
529 1003 1020 461 
530 662 663 379 
531 280 807 775 
532 428 840 839 
533 644 1000 997 
534 880 908 843 
535 69 249 70 
536 470 1009 833 
537 896 978 964 
538 499 985 511 
539 424 838 426 
540 47 265 48 
541 800 801 799 
542 459 857 464 
543 43 815 44 
544 303 802 800 
545 897 898 351 
546 774 1180 714 
547 695 774 714 
548 63 275 64 
549 303 799 36 
550 77 811 297 
551 851 888 600 
552 830 1014 829 
553 511 985 852 
554 836 926 475 
555 582 658 657 
556 645 997 993 
557 879 908 509 
558 772 773 770 
559 660 818 817 
560 464 857 601 
561 144 302 143 
562 600 888 561 
563 659 660 658 
564 835 994 881 
565 426 838 656 
566 82 257 83 
567 849 850 673 
568 769 772 770 
569 280 775 72 
570 73 299 74 
571 160 872 230 
572 37 301 38 
573 75 305 76 
574 660 817 658 
575 603 848 607 
576 163 864 241 
577 71 280 72 
578 511 998 875 
579 859 860 659 
580 31 285 32 
581 77 297 78 
582 510 879 509 
583 35 303 36 
584 32 793 33 
585 489 490 487 
586 752 753 242 
587 670 849 673 
588 40 298 41 
589 785 866 627 
590 22 242 23 
591 315 881 313 
592 80 277 81 
593 33 300 34 
594 426 656 429 
595 486 489 487 
596 49 240 50 
597 845 846 607 
598 42 258 43 
599 82 760 257 
600 193 304 192 
601 578 859 582 
602 582 859 659 
603 511 875 497 
604 598 848 603 
605 858 868 599 
606 613 996 620 
607 480 877 476 
608 854 855 304 
609 503 945 512 
610 456 857 459 
611 489 577 490 
612 295 854 194 
613 861 863 600 
614 328 897 351 
615 744 745 704 
616 474 853 480 
617 512 945 873 
618 384 784 376 
619 468 904 471 
620 529 894 527 
621 42 761 258 
622 735 737 734 
623 598 875 848 
624 570 886 452 
625 430 878 579 
626 15 1038 16 
627 670 673 672 
628 568 861 600 
629 964 978 340 
630 621 869 588 
631 577 578 490 
632 463 871 468 
633 193 854 304 
634 582 659 658 
635 654 859 578 
636 708 804 623 
637 527 894 647 
638 864 865 241 
639 655 715 654 
640 599 868 552 
641 1017 1019 566 
642 191 856 273 
643 533 885 536 
644 304 856 192 
645 668 876 849 
646 635 755 685 
647 163 241 162 
648 578 582 581 
649 486 487 485 
650 486 491 489 
651 845 847 846 
652 648 1002 858 
653 546 885 533 
654 517 879 510 
655 497 875 496 
656 475 853 474 
657 471 475 474 
658 434 488 436 
659 627 866 629 
660 484 486 485 
661 629 866 635 
662 160 230 159 
663 577 654 578 
664 440 1014 442 
665 614 648 599 
666 459 464 462 
667 429 878 430 
668 561 888 521 
669 476 877 479 
670 438 481 440 
671 601 909 493 
672 784 932 376 
673 62 702 63 
674 587 861 568 
675 444 470 446 
676 629 635 631 
677 430 579 432 
678 446 1004 448 
679 161 872 160 
680 479 877 484 
681 603 607 605 
682 619 841 616 
683 871 937 904 
684 464 493 492 
685 587 862 861 
686 624 708 623 
687 111 237 110 
688 51 231 52 
689 904 937 836 
690 450 461 452 
691 464 492 462 
692 660 819 818 
693 626 785 627 
694 578 581 490 
695 568 600 561 
696 461 644 570 
697 20 228 21 
698 333 881 315 
699 495 496 494 
700 582 657 581 
701 496 875 598 
702 418 691 415 
703 493 495 494 
704 479 484 483 
705 495 497 496 
706 493 494 492 
707 605 626 606 
708 499 511 497 
709 413 915 416 
710 648 858 599 
711 837 886 570 
712 508 880 522 
713 558 599 552 
714 543 613 545 
715 585 633 565 
716 471 474 472 
717 552 868 550 
718 474 480 476 
719 1005 1010 477 
720 461 570 452 
721 114 227 113 
722 266 864 164 
723 877 959 484 
724 603 605 604 
725 520 565 517 
726 147 276 146 
727 622 623 621 
728 598 603 602 
729 644 645 570 
730 255 720 30 
731 733 734 732 
732 486 959 491 
733 84 696 250 
734 668 849 670 
735 585 653 633 
736 468 471 469 
737 498 499 497 
738 633 637 634 
739 613 620 545 
740 496 598 597 
741 520 585 565 
742 500 501 499 
743 506 880 508 
744 577 655 654 
745 503 512 501 
746 635 685 631 
747 237 874 110 
748 164 864 163 
749 502 503 501 
750 54 222 55 
751 857 886 837 
752 522 893 514 
753 231 780 52 
754 508 514 513 
755 558 614 599 
756 514 523 513 
757 637 808 638 
758 882 883 642 
759 368 973 971 
760 584 882 642 
761 536 885 543 
762 321 922 334 
763 22 752 242 
764 426 429 427 
765 459 462 460 
766 504 505 503 
767 674 675 667 
768 971 973 364 
769 665 674 667 
770 296 419 403 
771 506 508 505 
772 514 524 523 
773 509 880 506 
774 550 894 529 
775 452 886 453 
776 500 502 501 
777 456 459 457 
778 531 948 546 
779 464 601 493 
780 633 634 565 
781 508 513 505 
782 338 362 335 
783 504 506 505 
784 502 504 503 
785 618 621 588 
786 524 584 523 
787 10 256 11 
788 334 922 337 
789 569 587 568 
790 463 468 467 
791 328 351 332 
792 498 500 499 
793 108 884 254 
794 790 792 791 
795 592 882 584 
796 864 867 865 
797 637 638 634 
798 626 627 606 
799 508 522 514 
800 524 592 584 
801 415 915 413 
802 562 568 561 
803 450 452 451 
804 645 844 837 
805 487 972 900 
806 495 498 497 
807 584 642 586 
808 320 933 318 
809 265 428 424 
810 605 606 604 
811 871 904 468 
812 484 485 483 
813 448 450 449 
814 446 448 447 
815 808 842 638 
816 444 446 445 
817 593 594 592 
818 790 791 789 
819 518 520 517 
820 543 885 613 
821 698 700 594 
822 266 867 864 
823 17 219 18 
824 730 731 686 
825 453 456 455 
826 747 748 745 
827 603 604 602 
828 642 721 586 
829 442 444 443 
830 624 709 708 
831 147 887 276 
832 700 701 594 
833 593 698 594 
834 560 561 521 
835 496 597 494 
836 194 854 193 
837 584 586 523 
838 691 915 415 
839 247 790 789 
840 598 602 597 
841 438 440 439 
842 440 442 441 
843 165 266 164 
844 717 719 718 
845 524 593 592 
846 331 957 339 
847 806 825 805 
848 109 884 108 
849 667 876 668 
850 474 476 472 
851 622 624 623 
852 385 820 384 
853 346 970 383 
854 516 517 510 
855 699 805 698 
856 587 869 862 
857 507 509 506 
858 540 891 538 
859 471 472 469 
860 643 1004 833 
861 192 856 191 
862 319 896 325 
863 12 247 13 
864 436 438 437 
865 349 386 341 
866 157 238 156 
867 588 869 587 
868 874 884 109 
869 492 871 462 
870 329 906 324 
871 543 545 544 
872 565 879 517 
873 416 730 686 
874 665 667 666 
875 373 400 399 
876 383 692 683 
877 453 886 456 
878 60 239 61 
879 462 871 463 
880 615 616 614 
881 531 546 533 
882 289 889 196 
883 346 383 382 
884 675 876 667 
885 110 874 109 
886 936 945 513 
887 585 851 653 
888 645 837 570 
889 395 890 118 
890 699 806 805 
891 117 253 116 
892 195 889 295 
893 117 890 253 
894 57 225 58 
895 195 295 194 
896 197 289 196 
897 868 894 550 
898 14 233 15 
899 551 552 550 
900 196 889 195 
901 553 558 552 
902 155 293 154 
903 118 890 117 
904 119 395 118 
905 618 622 621 
906 218 360 217 
907 593 699 698 
908 123 259 122 
909 216 244 215 
910 667 668 666 
911 617 619 616 
912 468 469 467 
913 557 649 555 
914 416 686 412 
915 185 361 184 
916 522 913 893 
917 126 226 125 
918 213 232 212 
919 536 543 542 
920 549 891 540 
921 88 396 87 
922 344 906 329 
923 569 588 587 
924 434 436 435 
925 557 905 649 
926 462 463 460 
927 725 727 726 
928 689 732 688 
929 459 460 457 
930 721 723 722 
931 127 892 126 
932 317 978 896 
933 456 886 857 
934 727 729 728 
935 334 337 336 
936 723 725 724 
937 527 647 525 
938 317 896 319 
939 452 453 451 
940 324 933 320 
941 627 629 628 
942 247 789 13 
943 126 892 226 
944 319 325 322 
945 128 268 127 
946 535 550 529 
947 1045 1150 946 
948 562 569 568 
949 212 903 211 
950 629 631 630 
951 504 507 506 
952 729 845 832 
953 151 294 150 
954 142 281 141 
955 518 521 520 
956 129 895 128 
957 432 434 433 
958 560 562 561 
959 634 879 565 
960 456 457 455 
961 567 611 549 
962 337 369 348 
963 232 903 212 
964 514 893 524 
965 429 430 427 
966 744 746 745 
967 450 451 449 
968 448 449 447 
969 446 447 445 
970 647 944 525 
971 521 888 520 
972 268 892 127 
973 309 401 311 
974 130 221 129 
975 842 843 638 
976 191 273 190 
977 516 518 517 
978 636 640 619 
979 190 901 189 
980 189 260 188 
981 593 893 699 
982 353 370 344 
983 444 445 443 
984 853 1007 480 
985 520 888 585 
986 211 269 210 
987 585 888 851 
988 165 916 266 
989 547 549 540 
990 148 887 147 
991 341 957 331 
992 442 443 441 
993 240 741 50 
994 735 738 737 
995 507 510 509 
996 493 909 495 
997 498 519 500 
998 128 895 268 
999 524 893 593 
1000 440 441 439 
1001 541 548 547 
1002 343 344 329 
1003 721 722 586 
1004 597 937 494 
1005 252 887 148 
1006 852 985 981 
1007 89 914 88 
1008 438 439 437 
1009 554 610 583 
1010 487 900 485 
1011 210 902 209 
1012 505 945 503 
1013 523 936 513 
1014 221 895 129 
1015 699 913 806 
1016 548 907 547 
1017 697 797 591 
1018 88 914 396 
1019 543 544 542 
1020 747 749 748 
1021 211 903 269 
1022 558 615 614 
1023 166 916 165 
1024 413 416 412 
1025 757 766 371 
1026 492 937 871 
1027 873 945 936 
1028 676 677 589 
1029 150 899 149 
1030 567 641 632 
1031 273 901 190 
1032 534 917 532 
1033 383 683 382 
1034 108 254 107 
1035 641 712 632 
1036 209 220 208 
1037 545 574 544 
1038 189 901 260 
1039 896 897 325 
1040 541 547 540 
1041 547 567 549 
1042 480 1013 877 
1043 744 751 746 
1044 723 724 722 
1045 567 632 611 
1046 132 267 131 
1047 528 531 530 
1048 891 917 538 
1049 567 907 641 
1050 725 726 724 
1051 746 747 745 
1052 727 728 726 
1053 897 964 898 
1054 208 912 207 
1055 197 938 289 
1056 648 1005 1002 
1057 638 908 634 
1058 733 735 734 
1059 307 976 309 
1060 349 387 386 
1061 411 413 412 
1062 539 564 541 
1063 634 908 879 
1064 535 551 550 
1065 198 938 197 
1066 263 307 306 
1067 547 907 567 
1068 364 372 365 
1069 541 919 548 
1070 436 437 435 
1071 294 899 150 
1072 515 646 571 
1073 269 902 210 
1074 537 538 534 
1075 90 245 89 
1076 893 913 699 
1077 539 541 540 
1078 476 479 478 
1079 479 483 482 
1080 551 553 552 
1081 729 832 728 
1082 843 908 638 
1083 539 540 538 
1084 575 905 557 
1085 207 270 206 
1086 531 533 532 
1087 906 933 324 
1088 586 936 523 
1089 495 909 498 
1090 536 537 534 
1091 559 560 521 
1092 494 937 492 
1093 746 927 747 
1094 627 628 606 
1095 836 937 597 
1096 458 609 526 
1097 615 617 616 
1098 406 1113 404 
1099 453 455 454 
1100 531 532 530 
1101 533 536 534 
1102 533 534 532 
1103 515 516 510 
1104 411 412 410 
1105 149 252 148 
1106 595 618 588 
1107 337 348 347 
1108 502 940 504 
1109 337 922 369 
1110 206 918 205 
1111 672 717 716 
1112 639 711 676 
1113 559 612 596 
1114 504 940 507 
1115 434 435 433 
1116 325 327 322 
1117 498 909 519 
1118 536 542 537 
1119 724 873 722 
1120 463 467 466 
1121 604 926 602 
1122 388 736 381 
1123 663 664 379 
1124 629 630 628 
1125 388 782 736 
1126 574 639 589 
1127 643 833 596 
1128 602 836 597 
1129 209 902 220 
1130 134 223 133 
1131 556 608 563 
1132 518 559 521 
1133 205 224 204 
1134 430 432 431 
1135 649 949 555 
1136 722 936 586 
1137 573 650 572 
1138 351 953 332 
1139 458 525 454 
1140 537 539 538 
1141 380 381 345 
1142 507 515 510 
1143 554 943 610 
1144 308 975 756 
1145 574 589 544 
1146 167 261 166 
1147 687 688 418 
1148 564 919 541 
1149 343 353 344 
1150 639 676 589 
1151 538 917 534 
1152 530 535 529 
1153 372 373 365 
1154 353 371 370 
1155 453 454 451 
1156 484 959 486 
1157 46 229 1 
1158 617 636 619 
1159 728 852 726 
1160 346 382 380 
1161 513 945 505 
1162 473 572 466 
1163 515 571 516 
1164 457 924 455 
1165 245 914 89 
1166 631 831 630 
1167 528 530 529 
1168 554 580 553 
1169 526 527 525 
1170 747 750 749 
1171 138 935 137 
1172 590 651 575 
1173 377 384 376 
1174 560 925 562 
1175 747 927 750 
1176 183 246 182 
1177 554 583 580 
1178 551 554 553 
1179 583 679 591 
1180 595 830 829 
1181 558 958 615 
1182 455 458 454 
1183 563 575 557 
1184 679 697 591 
1185 583 591 580 
1186 323 324 320 
1187 220 912 208 
1188 881 975 313 
1189 559 596 560 
1190 330 346 345 
1191 107 910 106 
1192 569 595 588 
1193 137 234 136 
1194 331 339 327 
1195 528 529 527 
1196 612 643 596 
1197 590 682 681 
1198 683 826 382 
1199 463 466 460 
1200 458 526 525 
1201 447 465 445 
1202 308 756 306 
1203 337 347 336 
1204 354 976 307 
1205 202 236 201 
1206 885 990 613 
1207 261 916 166 
1208 380 388 381 
1209 200 939 199 
1210 140 248 139 
1211 473 573 572 
1212 476 478 472 
1213 441 477 439 
1214 526 528 527 
1215 622 828 624 
1216 314 317 316 
1217 873 936 722 
1218 507 940 515 
1219 386 957 341 
1220 556 557 555 
1221 485 576 483 
1222 149 899 252 
1223 199 251 198 
1224 309 311 310 
1225 532 930 530 
1226 458 924 609 
1227 981 985 512 
1228 348 397 352 
1229 606 931 604 
1230 207 912 270 
1231 665 666 664 
1232 917 930 532 
1233 516 941 518 
1234 467 473 466 
1235 349 932 387 
1236 595 829 618 
1237 668 670 669 
1238 432 433 431 
1239 326 329 324 
1240 553 958 558 
1241 182 950 181 
1242 455 924 458 
1243 353 678 371 
1244 530 930 535 
1245 515 940 646 
1246 330 343 329 
1247 615 652 617 
1248 325 897 328 
1249 346 380 345 
1250 590 681 651 
1251 340 986 964 
1252 797 974 591 
1253 678 757 371 
1254 312 313 310 
1255 317 319 318 
1256 868 991 894 
1257 833 925 596 
1258 563 590 575 
1259 666 923 664 
1260 401 942 311 
1261 571 941 516 
1262 596 925 560 
1263 896 964 897 
1264 319 322 320 
1265 321 333 315 
1266 451 944 449 
1267 556 563 557 
1268 602 926 836 
1269 270 918 206 
1270 559 941 612 
1271 323 367 326 
1272 409 411 410 
1273 528 948 531 
1274 482 555 478 
1275 348 352 347 
1276 479 482 478 
1277 546 992 990 
1278 409 934 411 
1279 483 963 482 
1280 322 323 320 
1281 609 948 526 
1282 323 326 324 
1283 519 977 500 
1284 663 665 664 
1285 670 672 671 
1286 168 928 167 
1287 873 981 512 
1288 326 330 329 
1289 518 941 559 
1290 615 958 652 
1291 330 345 343 
1292 562 947 569 
1293 254 910 107 
1294 319 320 318 
1295 501 985 499 
1296 535 943 551 
1297 628 931 606 
1298 719 794 718 
1299 995 999 679 
1300 424 426 425 
1301 342 349 341 
1302 181 272 180 
1303 942 986 340 
1304 426 427 425 
1305 317 318 316 
1306 460 952 457 
1307 205 918 224 
1308 482 556 555 
1309 310 975 308 
1310 604 931 926 
1311 437 566 435 
1312 93 262 92 
1313 104 274 103 
1314 106 279 105 
1315 263 354 307 
1316 316 321 315 
1317 430 431 427 
1318 525 944 454 
1319 502 977 940 
1320 311 312 310 
1321 490 972 487 
1322 689 733 732 
1323 472 949 469 
1324 379 1025 356 
1325 352 680 368 
1326 551 943 554 
1327 454 944 451 
1328 958 974 652 
1329 312 314 313 
1330 325 328 327 
1331 375 376 350 
1332 414 415 413 
1333 314 315 313 
1334 580 974 958 
1335 321 334 333 
1336 930 943 535 
1337 608 961 563 
1338 251 938 198 
1339 411 414 413 
1340 485 900 576 
1341 311 340 312 
1342 526 948 528 
1343 580 958 553 
1344 180 951 179 
1345 364 973 372 
1346 457 952 924 
1347 925 947 562 
1348 668 669 666 
1349 433 625 431 
1350 314 316 315 
1351 572 952 466 
1352 94 955 93 
1353 595 947 830 
1354 381 960 345 
1355 576 963 483 
1356 309 310 308 
1357 556 963 608 
1358 569 947 595 
1359 103 956 102 
1360 363 394 362 
1361 466 952 460 
1362 343 960 353 
1363 500 977 502 
1364 590 961 682 
1365 891 987 982 
1366 307 309 308 
1367 179 291 178 
1368 137 935 234 
1369 95 278 94 
1370 169 271 168 
1371 647 980 944 
1372 409 410 408 
1373 717 718 716 
1374 309 976 401 
1375 352 368 347 
1376 687 689 688 
1377 377 385 384 
1378 170 966 169 
1379 573 996 650 
1380 478 949 472 
1381 940 977 646 
1382 342 374 350 
1383 327 954 322 
1384 86 282 2 
1385 96 965 95 
1386 171 283 170 
1387 1011 1018 397 
1388 345 960 343 
1389 373 399 398 
1390 417 418 415 
1391 101 967 100 
1392 311 942 340 
1393 435 962 433 
1394 102 284 101 
1395 176 286 175 
1396 724 981 873 
1397 482 963 556 
1398 983 989 473 
1399 229 358 1 
1400 1012 1014 830 
1401 353 960 678 
1402 97 287 96 
1403 990 992 650 
1404 100 969 99 
1405 563 961 590 
1406 933 979 318 
1407 322 954 323 
1408 246 950 182 
1409 339 954 327 
1410 375 684 377 
1411 174 968 173 
1412 332 341 331 
1413 307 308 306 
1414 581 972 490 
1415 173 292 172 
1416 99 290 98 
1417 199 939 251 
1418 449 980 447 
1419 328 331 327 
1420 447 980 465 
1421 342 953 374 
1422 330 970 346 
1423 611 987 549 
1424 852 981 726 
1425 167 928 261 
1426 321 979 922 
1427 323 954 367 
1428 591 974 580 
1429 427 946 425 
1430 944 980 449 
1431 555 949 478 
1432 342 350 349 
1433 350 932 349 
1434 431 946 427 
1435 363 988 394 
1436 982 987 610 
1437 844 993 519 
1438 334 336 335 
1439 411 934 414 
1440 657 661 581 
1441 399 422 421 
1442 373 398 365 
1443 852 998 511 
1444 391 409 408 
1445 740 759 738 
1446 669 923 666 
1447 467 983 473 
1448 326 970 330 
1449 318 979 316 
1450 376 932 350 
1451 26 288 27 
1452 367 970 326 
1453 106 910 279 
1454 313 975 310 
1455 996 1008 620 
1456 332 342 341 
1457 375 377 376 
1458 316 979 321 
1459 328 332 331 
1460 650 984 572 
1461 347 971 336 
1462 649 983 949 
1463 433 962 625 
1464 670 671 669 
1465 181 950 272 
1466 338 363 362 
1467 891 982 917 
1468 726 981 724 
1469 391 408 407 
1470 314 978 317 
1471 566 962 435 
1472 672 716 671 
1473 643 1020 1003 
1474 928 929 261 
1475 374 375 350 
1476 364 365 363 
1477 949 983 469 
1478 365 988 363 
1479 980 991 465 
1480 611 999 995 
1481 469 983 467 
1482 338 971 364 
1483 334 335 333 
1484 625 946 431 
1485 943 982 610 
1486 312 978 314 
1487 650 992 984 
1488 948 992 546 
1489 417 687 418 
1490 336 338 335 
1491 272 951 180 
1492 648 1010 1005 
1493 448 1003 450 
1494 414 417 415 
1495 340 978 312 
1496 930 982 943 
1497 1003 1004 643 
1498 93 955 262 
1499 952 984 924 
1500 917 982 930 
1501 271 928 168 
1502 735 740 738 
1503 274 956 103 
1504 512 985 501 
1505 391 407 390 
1506 583 995 679 
1507 332 953 342 
1508 1007 1013 480 
1509 336 971 338 
1510 572 984 952 
1511 399 421 398 
1512 649 989 983 
1513 392 393 229 
1514 179 951 291 
1515 278 955 94 
1516 368 971 347 
1517 728 998 852 
1518 858 1002 465 
1519 647 991 980 
1520 650 996 990 
1521 24 713 264 
1522 338 364 363 
1523 783 994 835 
1524 102 956 284 
1525 169 966 271 
1526 95 965 278 
1527 265 424 423 
1528 924 984 609 
1529 283 966 170 
1530 984 992 609 
1531 905 989 649 
1532 990 996 613 
1533 287 965 96 
1534 284 967 101 
1535 370 1006 344 
1536 841 1019 1017 
1537 967 969 100 
1538 392 402 393 
1539 546 990 885 
1540 99 969 290 
1541 173 968 292 
1542 549 987 891 
1543 841 1017 477 
1544 616 1010 614 
1545 661 972 581 
1546 894 991 647 
1547 933 1001 979 
1548 610 995 583 
1549 424 425 423 
1550 442 1012 444 
1551 979 1001 922 
1552 473 989 573 
1553 465 1002 445 
1554 964 986 898 
1555 296 403 8 
1556 519 993 977 
1557 611 995 987 
1558 436 1015 438 
1559 46 392 229 
1560 609 992 948 
1561 941 1000 612 
1562 441 1005 477 
1563 646 997 571 
1564 832 998 728 
1565 977 993 646 
1566 628 1007 931 
1567 282 359 2 
1568 993 997 646 
1569 632 999 611 
1570 398 988 365 
1571 997 1000 571 
1572 348 1011 397 
1573 640 1019 619 
1574 987 995 610 
1575 571 1000 941 
1576 931 1007 853 
1577 86 389 282 
1578 833 1009 925 
1579 829 1016 618 
1580 389 391 390 
1581 370 1018 1011 
1582 766 1018 371 
1583 906 1001 933 
1584 922 1001 369 
1585 622 1016 828 
1586 477 1017 439 
1587 461 1020 644 
1588 906 1006 1001 
1589 389 390 282 
1590 445 1002 443 
1591 288 355 27 
1592 1001 1006 369 
1593 247 1114 790 
1594 450 1003 461 
1595 1000 1020 612 
1596 437 1017 566 
1597 947 1009 830 
1598 448 1004 1003 
1599 26 366 288 
1600 265 423 48 
1601 443 1005 441 
1602 1002 1005 443 
1603 651 1023 1022 
1604 574 1024 639 
1605 288 357 355 
1606 630 1007 628 
1607 344 1006 906 
1608 651 1022 575 
1609 644 1020 1000 
1610 614 1010 648 
1611 545 1023 574 
1612 905 1008 989 
1613 925 1009 947 
1614 989 1008 573 
1615 370 1011 1006 
1616 369 1011 348 
1617 444 1012 470 
1618 630 1013 1007 
1619 442 1014 1012 
1620 573 1008 996 
1621 831 1013 630 
1622 438 1015 481 
1623 618 1016 622 
1624 439 1017 437 
1625 566 1021 962 
1626 1008 1022 620 
1627 1023 1024 574 
1628 371 1018 370 
1629 619 1019 841 
1630 625 1045 946 
1631 905 1022 1008 
1632 1006 1011 369 
1633 612 1020 643 
1634 640 1021 1019 
1635 1022 1023 620 
1636 1019 1021 566 
1637 575 1022 905 
1638 620 1023 545 
1639 664 1025 379 
1640 810 1078 491 
1641 681 1024 651 
1642 295 1027 854 
1643 651 1024 1023 
1644 132 1026 267 
1645 223 1026 133 
1646 656 1194 1035 
1647 146 1028 145 
1648 253 1041 826 
1649 855 1185 1070 
1650 9 1183 10 
1651 663 1029 665 
1652 686 1030 412 
1653 923 1025 664 
1654 592 1033 882 
1655 701 1033 594 
1656 783 1205 235 
1657 133 1026 132 
1658 854 1027 855 
1659 865 1156 241 
1660 760 1186 689 
1661 276 1028 146 
1662 1039 1101 968 
1663 429 1035 878 
1664 641 1102 712 
1665 665 1029 674 
1666 639 1037 711 
1667 1057 1141 951 
1668 29 1137 255 
1669 267 1048 847 
1670 412 1030 410 
1671 709 1044 827 
1672 911 1043 279 
1673 70 1032 71 
1674 135 1036 134 
1675 237 1082 874 
1676 594 1033 592 
1677 827 1047 579 
1678 257 1173 1118 
1679 11 1034 12 
1680 921 1049 542 
1681 774 1082 237 
1682 847 1048 846 
1683 488 1044 828 
1684 816 1211 258 
1685 273 1093 901 
1686 621 1042 869 
1687 661 1165 1158 
1688 804 1042 623 
1689 689 1173 760 
1690 291 1040 178 
1691 826 1041 382 
1692 286 1039 175 
1693 174 1039 968 
1694 380 1041 388 
1695 624 1044 709 
1696 104 1043 274 
1697 279 1043 105 
1698 681 1037 1024 
1699 626 1048 785 
1700 434 1047 488 
1701 579 1047 432 
1702 656 1035 429 
1703 792 1081 919 
1704 539 1049 564 
1705 542 1049 537 
1706 121 1055 120 
1707 154 1051 153 
1708 152 1052 151 
1709 708 1096 804 
1710 710 1108 236 
1711 233 1038 15 
1712 409 1053 934 
1713 389 1053 391 
1714 692 1069 694 
1715 259 1054 122 
1716 241 1056 162 
1717 636 1152 640 
1718 91 1079 850 
1719 161 1056 872 
1720 418 1057 691 
1721 763 1046 762 
1722 633 1059 637 
1723 576 1058 963 
1724 883 1202 124 
1725 1135 1168 988 
1726 748 1060 745 
1727 393 1050 229 
1728 171 1063 283 
1729 292 1063 172 
1730 360 1065 217 
1731 216 1065 244 
1732 134 1036 223 
1733 59 1148 60 
1734 762 1046 765 
1735 704 1060 703 
1736 1024 1037 639 
1737 807 1153 422 
1738 97 1067 287 
1739 290 1067 98 
1740 632 1066 999 
1741 383 1069 692 
1742 847 1073 267 
1743 1203 1210 225 
1744 387 1082 386 
1745 367 1069 970 
1746 954 1068 367 
1747 297 1134 78 
1748 1032 1135 421 
1749 240 1150 1045 
1750 1187 1216 719 
1751 390 1070 282 
1752 711 1038 676 
1753 1046 1179 1116 
1754 617 1071 636 
1755 80 1182 277 
1756 130 1073 221 
1757 255 1075 720 
1758 267 1073 131 
1759 302 1074 143 
1760 790 1081 792 
1761 142 1074 281 
1762 637 1159 808 
1763 175 1039 174 
1764 178 1040 177 
1765 38 1219 39 
1766 382 1041 380 
1767 1028 1089 145 
1768 671 1075 669 
1769 623 1042 621 
1770 1032 1153 280 
1771 798 1220 736 
1772 105 1043 104 
1773 828 1044 624 
1774 678 1220 798 
1775 222 1177 55 
1776 225 1196 58 
1777 900 1072 576 
1778 491 1078 489 
1779 577 1078 655 
1780 352 1077 680 
1781 57 1203 225 
1782 92 1079 91 
1783 1073 1097 221 
1784 803 1083 800 
1785 16 1192 17 
1786 428 1084 840 
1787 846 1048 626 
1788 869 1145 862 
1789 229 1050 358 
1790 85 1204 86 
1791 47 1084 265 
1792 240 1045 741 
1793 915 1085 416 
1794 706 1089 1028 
1795 1046 1116 765 
1796 86 1204 389 
1797 144 1089 302 
1798 771 1046 763 
1799 214 1132 825 
1800 824 1062 243 
1801 576 1072 1058 
1802 808 1091 842 
1803 432 1047 434 
1804 1182 1199 277 
1805 537 1049 539 
1806 388 1155 782 
1807 114 1092 227 
1808 806 1091 825 
1809 942 1050 986 
1810 863 1098 851 
1811 838 1099 656 
1812 422 1094 807 
1813 254 1218 1127 
1814 202 1096 236 
1815 277 1199 1186 
1816 356 1137 28 
1817 273 1162 1093 
1818 662 1111 663 
1819 293 1051 154 
1820 151 1052 294 
1821 660 1100 819 
1822 727 1117 729 
1823 860 1100 659 
1824 729 1097 845 
1825 391 1053 409 
1826 751 1103 746 
1827 862 1106 861 
1828 122 1054 121 
1829 399 1107 422 
1830 264 1178 817 
1831 911 1104 765 
1832 236 1108 201 
1833 200 1108 939 
1834 688 1057 418 
1835 162 1056 161 
1836 935 1174 715 
1837 818 1209 366 
1838 963 1058 608 
1839 653 1059 633 
1840 967 1095 969 
1841 770 1112 771 
1842 642 1110 721 
1843 825 1200 214 
1844 1127 1218 784 
1845 784 1115 932 
1846 1030 1093 410 
1847 693 1105 227 
1848 766 1109 1018 
1849 745 1060 704 
1850 18 1061 19 
1851 973 1156 865 
1852 187 1087 186 
1853 889 1128 295 
1854 392 1062 402 
1855 673 1119 672 
1856 812 1140 297 
1857 172 1063 171 
1858 878 1064 579 
1859 417 1118 687 
1860 281 1120 141 
1861 140 1120 248 
1862 271 1121 928 
1863 742 1129 1021 
1864 217 1065 216 
1865 797 1122 974 
1866 304 1124 856 
1867 730 1085 834 
1868 834 1085 246 
1869 727 1139 1117 
1870 966 1181 271 
1871 820 1127 384 
1872 420 1086 405 
1873 296 1133 690 
1874 176 1126 286 
1875 215 1132 214 
1876 934 1131 414 
1877 681 1172 1037 
1878 230 1138 159 
1879 245 1149 914 
1880 398 1135 988 
1881 1066 1196 225 
1882 712 1066 632 
1883 98 1067 97 
1884 1021 1129 962 
1885 859 1151 860 
1886 916 1146 266 
1887 929 1143 261 
1888 715 1151 654 
1889 819 1080 818 
1890 425 1150 423 
1891 1102 1148 712 
1892 67 1198 235 
1893 972 1158 900 
1894 351 1163 953 
1895 339 1068 954 
1896 970 1069 383 
1897 368 1156 973 
1898 157 1166 238 
1899 1037 1192 711 
1900 743 1164 744 
1901 188 1167 187 
1902 4 1169 119 
1903 153 1169 4 
1904 5 1170 218 
1905 120 1170 5 
1906 3 1171 152 
1907 87 1171 3 
1908 736 1220 381 
1909 817 1178 658 
1910 138 1174 935 
1911 248 1174 139 
1912 850 1079 673 
1913 713 1178 264 
1914 960 1220 678 
1915 112 1180 111 
1916 849 1207 850 
1917 226 1206 125 
1918 282 1070 359 
1919 124 1202 123 
1920 214 1200 213 
1921 306 1198 66 
1922 66 1198 67 
1923 733 1199 735 
1924 999 1210 679 
1925 1058 1072 754 
1926 1037 1172 219 
1927 233 1136 1038 
1928 976 1147 690 
1929 652 1071 617 
1930 1034 1114 247 
1931 1054 1055 121 
1932 725 1139 727 
1933 1113 1183 404 
1934 131 1073 130 
1935 45 1212 46 
1936 386 1191 957 
1937 143 1074 142 
1938 294 1184 899 
1939 765 1116 911 
1940 46 1212 392 
1941 691 1157 915 
1942 822 1205 394 
1943 847 1097 1073 
1944 280 1153 807 
1945 729 1117 1097 
1946 669 1075 923 
1947 1038 1136 676 
1948 245 1207 1149 
1949 1040 1126 177 
1950 113 1105 112 
1951 219 1192 1037 
1952 360 1189 1065 
1953 725 1161 1139 
1954 227 1105 113 
1955 249 1168 1135 
1956 252 1111 887 
1957 716 1130 671 
1958 397 1077 352 
1959 951 1141 291 
1960 489 1078 577 
1961 262 1079 92 
1962 805 1132 244 
1963 750 1114 749 
1964 800 1083 801 
1965 548 1103 907 
1966 265 1084 428 
1967 1029 1111 252 
1968 416 1085 730 
1969 688 1141 1057 
1970 124 1206 883 
1971 968 1101 1031 
1972 145 1089 144 
1973 856 1162 273 
1974 401 1201 942 
1975 374 1125 824 
1976 749 1114 1034 
1977 842 1091 806 
1978 354 1147 976 
1979 912 1106 270 
1980 339 1123 1068 
1981 115 1092 114 
1982 723 1161 725 
1983 394 1205 783 
1984 690 1133 1076 
1985 652 1122 1071 
1986 254 1127 910 
1987 410 1093 408 
1988 845 1097 847 
1989 203 1096 202 
1990 912 1213 1106 
1991 397 1109 1077 
1992 851 1098 653 
1993 839 1099 838 
1994 953 1125 374 
1995 659 1100 660 
1996 394 1168 822 
1997 373 1197 400 
1998 675 1208 1149 
1999 723 1190 1161 
2000 421 1153 1032 
2001 746 1103 927 
2002 1088 1208 675 
2003 765 1104 764 
2004 929 1121 1094 
2005 817 1144 264 
2006 1106 1213 863 
2007 714 1105 693 
2008 1110 1206 226 
2009 861 1106 863 
2010 400 1107 399 
2011 219 1172 1061 
2012 1065 1189 700 
2013 201 1108 200 
2014 1031 1101 812 
2015 1107 1143 929 
2016 28 1137 29 
2017 674 1184 675 
2018 1080 1209 818 
2019 6 1193 185 
2020 186 1193 6 
2021 712 1196 1066 
2022 815 1211 684 
2023 773 1112 770 
2024 883 1110 642 
2025 663 1111 1029 
2026 915 1157 1085 
2027 689 1186 733 
2028 969 1154 290 
2029 1018 1109 397 
2030 1052 1088 294 
2031 721 1190 723 
2032 625 1129 1045 
2033 932 1115 387 
2034 739 1140 1101 
2035 1043 1116 274 
2036 221 1117 895 
2037 1116 1179 274 
2038 878 1142 1064 
2039 1035 1142 878 
2040 890 1155 253 
2041 1134 1182 79 
2042 1055 1189 360 
2043 271 1181 1121 
2044 840 1128 839 
2045 672 1119 717 
2046 1093 1162 408 
2047 264 1144 25 
2048 141 1120 140 
2049 928 1121 929 
2050 988 1168 394 
2051 1027 1128 840 
2052 911 1116 1043 
2053 1117 1139 895 
2054 974 1122 652 
2055 823 1176 283 
2056 957 1123 339 
2057 251 1142 1035 
2058 1076 1201 401 
2059 855 1124 304 
2060 903 1159 269 
2061 1097 1117 221 
2062 824 1125 1062 
2063 707 1209 1080 
2064 177 1126 176 
2065 384 1127 784 
2066 295 1128 1027 
2067 825 1132 805 
2068 7 1133 296 
2069 962 1129 625 
2070 414 1131 417 
2071 244 1132 215 
2072 956 1179 771 
2073 78 1134 79 
2074 1091 1200 825 
2075 421 1135 398 
2076 243 1212 45 
2077 676 1136 677 
2078 159 1138 158 
2079 895 1139 268 
2080 1177 1203 56 
2081 1089 1160 302 
2082 283 1214 823 
2083 732 1141 688 
2084 918 1145 224 
2085 253 1155 1041 
2086 354 1195 1147 
2087 939 1142 251 
2088 1025 1137 356 
2089 1094 1121 779 
2090 1042 1145 869 
2091 1119 1187 717 
2092 261 1143 916 
2093 283 1176 966 
2094 250 1204 85 
2095 690 1147 419 
2096 266 1146 867 
2097 60 1148 239 
2098 675 1149 876 
2099 1076 1133 358 
2100 654 1151 859 
2101 946 1150 425 
2102 1139 1161 268 
2103 231 1152 780 
2104 1138 1166 158 
2105 422 1153 421 
2106 1055 1170 120 
2107 1051 1169 153 
2108 152 1171 1052 
2109 1041 1155 388 
2110 865 1217 973 
2111 1150 1215 423 
2112 697 1210 1203 
2113 1090 1095 773 
2114 707 1160 706 
2115 185 1193 361 
2116 1063 1214 283 
2117 695 1191 774 
2118 1059 1159 637 
2119 680 1156 368 
2120 246 1157 950 
2121 661 1158 972 
2122 268 1161 892 
2123 408 1162 407 
2124 687 1173 689 
2125 938 1194 289 
2126 898 1163 351 
2127 744 1164 751 
2128 158 1166 157 
2129 372 1197 373 
2130 1149 1207 876 
2131 675 1184 1088 
2132 1101 1140 812 
2133 260 1167 188 
2134 119 1169 395 
2135 218 1170 360 
2136 396 1171 87 
2137 1083 1154 801 
2138 760 1173 257 
2139 682 1172 681 
2140 1099 1194 656 
2141 1161 1190 892 
2142 139 1174 138 
2143 784 1218 1115 
2144 863 1213 1098 
2145 55 1177 56 
2146 269 1159 1059 
2147 658 1178 657 
2148 290 1154 1083 
2149 274 1179 956 
2150 111 1180 237 
2151 779 1181 778 
2152 224 1145 1042 
2153 1062 1125 402 
2154 79 1182 80 
2155 10 1183 256 
2156 1062 1212 243 
2157 717 1187 719 
2158 239 1148 1102 
2159 973 1217 372 
2160 700 1189 701 
2161 892 1190 226 
2162 1085 1157 246 
2163 17 1192 219 
2164 58 1196 59 
2165 756 1198 306 
2166 372 1217 1197 
2167 213 1200 232 
2168 735 1199 740 
2169 389 1204 1053 
2170 123 1202 259 
2171 840 1185 1027 
2172 56 1203 57 
2173 400 1197 1146 
2174 876 1207 849 
2175 125 1206 124 
2176 914 1208 396 
2177 1053 1204 250 
2178 679 1210 697 
2179 49 1215 240 
2180 301 1219 38 
2181 867 1217 865 
2182 884 1218 254 
2183 220 1213 912 
2184 381 1220 960 
2185 740 1199 1182 
2186 360 1170 1055 
2187 395 1169 1051 
2188 1052 1171 396 
2189 771 1179 1046 
2190 1197 1217 867 
2191 1061 1172 682 
2192 1050 1201 358 
2193 417 1131 1118 
2194 1118 1131 696 
2195 1175 1195 758 
2196 420 1195 1175 
2197 1070 1185 359 
2198 942 1201 1050 
2199 232 1200 1091 
2200 706 1160 1089 
2201 1080 1160 707 
2202 302 1160 1080 
2203 1121 1181 779 
2204 420 1175 1086 
2205 361 1193 1087 
2206 400 1143 1107 
2207 1095 1154 969 
2208 751 1164 1102 
2209 1102 1164 239 
2210 392 1212 1062 
2211 289 1194 1099 
2212 813 1214 1063 
2213 256 1183 1113 
2214 1088 1184 294 
2215 883 1206 1110 
2216 358 1201 1076 
2217 1123 1191 695 
2218 1087 1193 186 
2219 1098 1213 220 
2220 1149 1208 914 
2221 957 1191 1123 
2222 1115 1218 884 
2223 1146 1197 867 
2224 240 1215 1150 
$EndElements
